<mxfile host="65bd71144e">
    <diagram id="4Zwy263Zy7jMC4nI4DeS" name="RAM category">
        <mxGraphModel dx="576" dy="779" grid="0" gridSize="10" guides="1" tooltips="1" connect="1" arrows="1" fold="1" page="1" pageScale="1" pageWidth="1169" pageHeight="827" math="0" shadow="0">
            <root>
                <mxCell id="0"/>
                <mxCell id="1" parent="0"/>
                <mxCell id="GQ4ZNhDwMplAb6naEBB--1" value="" style="group" parent="1" vertex="1" connectable="0">
                    <mxGeometry x="144" y="202" width="553" height="266" as="geometry"/>
                </mxCell>
                <mxCell id="GQ4ZNhDwMplAb6naEBB--2" value="" style="rounded=0;whiteSpace=wrap;html=1;fillColor=#fff2cc;strokeColor=none;" parent="GQ4ZNhDwMplAb6naEBB--1" vertex="1">
                    <mxGeometry width="553" height="266" as="geometry"/>
                </mxCell>
                <mxCell id="GQ4ZNhDwMplAb6naEBB--3" value="&lt;font style=&quot;&quot;&gt;&lt;span style=&quot;font-size: 23px;&quot;&gt;DRAM&lt;br&gt;&lt;/span&gt;&lt;br&gt;&lt;font style=&quot;&quot;&gt;&lt;font style=&quot;font-size: 14px;&quot;&gt;Synchronous DRAM(SRAM)&lt;br&gt;&lt;/font&gt;&lt;br&gt;&lt;/font&gt;Double Data Rate SDRAM(DDR)&lt;br&gt;&lt;/font&gt;" style="rounded=0;whiteSpace=wrap;html=1;verticalAlign=top;spacing=0;fillColor=#dae8fc;strokeColor=none;" parent="GQ4ZNhDwMplAb6naEBB--1" vertex="1">
                    <mxGeometry x="32" y="74.5" width="194" height="117" as="geometry"/>
                </mxCell>
                <mxCell id="GQ4ZNhDwMplAb6naEBB--4" value="&lt;font style=&quot;font-size: 24px;&quot;&gt;RAM&lt;/font&gt;" style="text;html=1;strokeColor=none;fillColor=none;align=center;verticalAlign=middle;whiteSpace=wrap;rounded=0;" parent="GQ4ZNhDwMplAb6naEBB--1" vertex="1">
                    <mxGeometry x="469" y="233" width="60" height="30" as="geometry"/>
                </mxCell>
                <mxCell id="GQ4ZNhDwMplAb6naEBB--5" value="&lt;font style=&quot;&quot;&gt;&lt;span style=&quot;font-size: 23px;&quot;&gt;SRAM&lt;br&gt;&lt;/span&gt;&lt;br&gt;&lt;font style=&quot;font-size: 14px;&quot;&gt;L1、L2、L3 Cache&lt;/font&gt;&lt;br&gt;&lt;/font&gt;" style="rounded=0;whiteSpace=wrap;html=1;verticalAlign=top;spacing=0;fillColor=#f8cecc;strokeColor=none;" parent="GQ4ZNhDwMplAb6naEBB--1" vertex="1">
                    <mxGeometry x="325" y="74" width="194" height="117.5" as="geometry"/>
                </mxCell>
            </root>
        </mxGraphModel>
    </diagram>
    <diagram id="wUFjwWL0PVoBcGWKTkA8" name="MEM category">
        <mxGraphModel dx="1023" dy="779" grid="0" gridSize="10" guides="1" tooltips="1" connect="1" arrows="1" fold="1" page="1" pageScale="1" pageWidth="1169" pageHeight="827" math="0" shadow="0">
            <root>
                <mxCell id="0"/>
                <mxCell id="1" parent="0"/>
                <mxCell id="7" value="" style="group" parent="1" vertex="1" connectable="0">
                    <mxGeometry x="144" y="202" width="553" height="266" as="geometry"/>
                </mxCell>
                <mxCell id="4" value="" style="rounded=0;whiteSpace=wrap;html=1;fillColor=#fff2cc;strokeColor=none;" parent="7" vertex="1">
                    <mxGeometry width="553" height="266" as="geometry"/>
                </mxCell>
                <mxCell id="2" value="&lt;font style=&quot;font-size: 23px;&quot;&gt;ROM(Read-only mem)&lt;/font&gt;" style="rounded=0;whiteSpace=wrap;html=1;verticalAlign=middle;spacing=0;fillColor=#dae8fc;strokeColor=none;" parent="7" vertex="1">
                    <mxGeometry x="32" y="74.5" width="194" height="117" as="geometry"/>
                </mxCell>
                <mxCell id="5" value="&lt;font style=&quot;font-size: 24px;&quot;&gt;Memory&lt;/font&gt;" style="text;html=1;strokeColor=none;fillColor=none;align=center;verticalAlign=middle;whiteSpace=wrap;rounded=0;" parent="7" vertex="1">
                    <mxGeometry x="469" y="233" width="60" height="30" as="geometry"/>
                </mxCell>
                <mxCell id="6" value="&lt;font style=&quot;font-size: 23px;&quot;&gt;RAM(Random Access Mem)&lt;/font&gt;" style="rounded=0;whiteSpace=wrap;html=1;verticalAlign=middle;spacing=0;fillColor=#f8cecc;strokeColor=none;" parent="7" vertex="1">
                    <mxGeometry x="325" y="74" width="194" height="117.5" as="geometry"/>
                </mxCell>
            </root>
        </mxGraphModel>
    </diagram>
    <diagram id="rUSf4frkqI4ZtRpKhJrS" name="CPU excution flow">
        <mxGraphModel dx="1023" dy="779" grid="0" gridSize="10" guides="1" tooltips="1" connect="1" arrows="1" fold="1" page="1" pageScale="1" pageWidth="1169" pageHeight="827" math="0" shadow="0">
            <root>
                <mxCell id="0"/>
                <mxCell id="1" parent="0"/>
                <mxCell id="v9bLiyRQ9dO6Hw5_8KtH-2" value="" style="rounded=0;whiteSpace=wrap;html=1;fillColor=#fff2cc;strokeColor=none;container=0;" parent="1" vertex="1">
                    <mxGeometry x="165" y="202" width="895" height="266" as="geometry"/>
                </mxCell>
                <mxCell id="v9bLiyRQ9dO6Hw5_8KtH-3" value="&lt;font style=&quot;font-size: 23px;&quot;&gt;&lt;span style=&quot;&quot;&gt;DRAM&lt;br&gt;&lt;/span&gt;DDR&lt;br&gt;&lt;/font&gt;" style="rounded=0;whiteSpace=wrap;html=1;verticalAlign=middle;spacing=0;fillColor=#dae8fc;strokeColor=none;container=0;flipV=1;flipH=1;" parent="1" vertex="1">
                    <mxGeometry x="826" y="292" width="194" height="117" as="geometry"/>
                </mxCell>
                <mxCell id="v9bLiyRQ9dO6Hw5_8KtH-4" value="&lt;font style=&quot;font-size: 24px;&quot;&gt;CPU Excution flow&lt;/font&gt;" style="text;html=1;strokeColor=none;fillColor=none;align=center;verticalAlign=middle;whiteSpace=wrap;rounded=0;container=0;" parent="1" vertex="1">
                    <mxGeometry x="843" y="435" width="214" height="30" as="geometry"/>
                </mxCell>
                <mxCell id="v9bLiyRQ9dO6Hw5_8KtH-5" value="&lt;font style=&quot;font-size: 16px;&quot;&gt;&lt;span style=&quot;&quot;&gt;SRAM&lt;br&gt;&lt;/span&gt;&lt;font style=&quot;font-size: 16px;&quot;&gt;L1 Cache&lt;/font&gt;&lt;br&gt;&lt;/font&gt;" style="rounded=0;whiteSpace=wrap;html=1;verticalAlign=middle;spacing=0;fillColor=#f8cecc;strokeColor=none;container=0;flipV=1;flipH=1;" parent="1" vertex="1">
                    <mxGeometry x="365" y="316" width="97" height="70" as="geometry"/>
                </mxCell>
                <mxCell id="v9bLiyRQ9dO6Hw5_8KtH-9" style="edgeStyle=none;html=1;entryX=0;entryY=0.5;entryDx=0;entryDy=0;fontSize=23;fontColor=#CCFFFF;startArrow=classic;startFill=1;" parent="1" source="v9bLiyRQ9dO6Hw5_8KtH-6" target="v9bLiyRQ9dO6Hw5_8KtH-5" edge="1">
                    <mxGeometry relative="1" as="geometry"/>
                </mxCell>
                <mxCell id="v9bLiyRQ9dO6Hw5_8KtH-6" value="&lt;font style=&quot;&quot;&gt;&lt;span style=&quot;font-size: 23px;&quot;&gt;CPU&lt;/span&gt;&lt;br&gt;&lt;/font&gt;" style="rounded=0;whiteSpace=wrap;html=1;verticalAlign=middle;spacing=0;fillColor=#d5e8d4;strokeColor=#82b366;container=0;flipV=1;flipH=1;" parent="1" vertex="1">
                    <mxGeometry x="200" y="312" width="104" height="78" as="geometry"/>
                </mxCell>
                <mxCell id="v9bLiyRQ9dO6Hw5_8KtH-10" value="" style="edgeStyle=none;html=1;fontSize=23;fontColor=#CCFFFF;startArrow=classic;startFill=1;" parent="1" source="v9bLiyRQ9dO6Hw5_8KtH-7" target="v9bLiyRQ9dO6Hw5_8KtH-5" edge="1">
                    <mxGeometry relative="1" as="geometry"/>
                </mxCell>
                <mxCell id="v9bLiyRQ9dO6Hw5_8KtH-11" value="" style="edgeStyle=none;html=1;fontSize=23;fontColor=#CCFFFF;startArrow=classic;startFill=1;" parent="1" source="v9bLiyRQ9dO6Hw5_8KtH-7" target="v9bLiyRQ9dO6Hw5_8KtH-8" edge="1">
                    <mxGeometry relative="1" as="geometry"/>
                </mxCell>
                <mxCell id="v9bLiyRQ9dO6Hw5_8KtH-7" value="&lt;font style=&quot;font-size: 21px;&quot;&gt;&lt;span style=&quot;&quot;&gt;SRAM&lt;br&gt;&lt;/span&gt;&lt;font style=&quot;font-size: 21px;&quot;&gt;L2 Cache&lt;/font&gt;&lt;br&gt;&lt;/font&gt;" style="rounded=0;whiteSpace=wrap;html=1;verticalAlign=middle;spacing=0;fillColor=#f8cecc;strokeColor=none;container=0;flipV=1;flipH=1;" parent="1" vertex="1">
                    <mxGeometry x="491" y="293" width="101" height="113" as="geometry"/>
                </mxCell>
                <mxCell id="v9bLiyRQ9dO6Hw5_8KtH-12" value="" style="edgeStyle=none;html=1;fontSize=23;fontColor=#CCFFFF;startArrow=classic;startFill=1;" parent="1" source="v9bLiyRQ9dO6Hw5_8KtH-8" target="v9bLiyRQ9dO6Hw5_8KtH-3" edge="1">
                    <mxGeometry relative="1" as="geometry"/>
                </mxCell>
                <mxCell id="v9bLiyRQ9dO6Hw5_8KtH-8" value="&lt;font style=&quot;font-size: 23px;&quot;&gt;&lt;span style=&quot;&quot;&gt;SRAM&lt;br&gt;&lt;/span&gt;&lt;font style=&quot;font-size: 23px;&quot;&gt;L3 Cache&lt;/font&gt;&lt;br&gt;&lt;/font&gt;" style="rounded=0;whiteSpace=wrap;html=1;verticalAlign=middle;spacing=0;fillColor=#f8cecc;strokeColor=none;container=0;flipV=1;flipH=1;" parent="1" vertex="1">
                    <mxGeometry x="627" y="274.75" width="124" height="154.5" as="geometry"/>
                </mxCell>
            </root>
        </mxGraphModel>
    </diagram>
    <diagram id="pFI84LCBj748ktwMQ8kG" name="Single Transistor memory cell">
        <mxGraphModel dx="355" dy="371" grid="1" gridSize="5" guides="1" tooltips="1" connect="1" arrows="1" fold="1" page="1" pageScale="1" pageWidth="3300" pageHeight="2339" math="0" shadow="0">
            <root>
                <mxCell id="0"/>
                <mxCell id="1" parent="0"/>
                <mxCell id="k4k1UZGO1L8zrPOkd5_1-1" value="" style="endArrow=none;html=1;strokeWidth=2;fillColor=#f8cecc;strokeColor=#b85450;sketch=1;curveFitting=1;jiggle=2;flowAnimation=0;shadow=0;fontFamily=Comic Sans MS;" parent="1" edge="1">
                    <mxGeometry width="50" height="50" relative="1" as="geometry">
                        <mxPoint x="250" y="370" as="sourcePoint"/>
                        <mxPoint x="410" y="370" as="targetPoint"/>
                    </mxGeometry>
                </mxCell>
                <mxCell id="k4k1UZGO1L8zrPOkd5_1-2" value="" style="endArrow=none;html=1;strokeWidth=2;sketch=1;curveFitting=1;jiggle=2;fillColor=#f8cecc;strokeColor=#b85450;fontFamily=Comic Sans MS;" parent="1" source="k4k1UZGO1L8zrPOkd5_1-13" edge="1">
                    <mxGeometry width="50" height="50" relative="1" as="geometry">
                        <mxPoint x="378" y="340" as="sourcePoint"/>
                        <mxPoint x="378" y="545" as="targetPoint"/>
                    </mxGeometry>
                </mxCell>
                <mxCell id="k4k1UZGO1L8zrPOkd5_1-6" value="" style="verticalLabelPosition=bottom;shadow=0;dashed=0;align=center;html=1;verticalAlign=top;shape=mxgraph.electrical.mosfets1.mosfet_n_no_bulk;sketch=1;curveFitting=1;jiggle=2;rotation=90;fontFamily=Comic Sans MS;" parent="1" vertex="1">
                    <mxGeometry x="280" y="366" width="95" height="100" as="geometry"/>
                </mxCell>
                <mxCell id="k4k1UZGO1L8zrPOkd5_1-7" value="" style="pointerEvents=1;verticalLabelPosition=bottom;shadow=0;dashed=0;align=center;html=1;verticalAlign=top;shape=mxgraph.electrical.capacitors.capacitor_1;sketch=1;curveFitting=1;jiggle=2;rotation=90;fontFamily=Comic Sans MS;" parent="1" vertex="1">
                    <mxGeometry x="227" y="455" width="100" height="60" as="geometry"/>
                </mxCell>
                <mxCell id="k4k1UZGO1L8zrPOkd5_1-8" value="&lt;font&gt;Word Line(Row)&lt;/font&gt;" style="text;html=1;align=center;verticalAlign=middle;whiteSpace=wrap;rounded=0;fontFamily=Comic Sans MS;" parent="1" vertex="1">
                    <mxGeometry x="265" y="341" width="105" height="30" as="geometry"/>
                </mxCell>
                <mxCell id="k4k1UZGO1L8zrPOkd5_1-9" value="&lt;font&gt;Bit Line(Col)&lt;/font&gt;" style="text;html=1;align=center;verticalAlign=middle;whiteSpace=wrap;rounded=0;fontFamily=Comic Sans MS;" parent="1" vertex="1">
                    <mxGeometry x="380" y="390" width="100" height="30" as="geometry"/>
                </mxCell>
                <mxCell id="k4k1UZGO1L8zrPOkd5_1-11" value="" style="ellipse;whiteSpace=wrap;html=1;aspect=fixed;gradientDirection=north;fillStyle=dots;fillColor=#000000;strokeColor=default;gradientColor=default;fontFamily=Comic Sans MS;" parent="1" vertex="1">
                    <mxGeometry x="325" y="366" width="5" height="5" as="geometry"/>
                </mxCell>
                <mxCell id="k4k1UZGO1L8zrPOkd5_1-14" value="" style="endArrow=none;html=1;strokeWidth=2;sketch=1;curveFitting=1;jiggle=2;fillColor=#f8cecc;strokeColor=#b85450;fontFamily=Comic Sans MS;" parent="1" target="k4k1UZGO1L8zrPOkd5_1-13" edge="1">
                    <mxGeometry width="50" height="50" relative="1" as="geometry">
                        <mxPoint x="378" y="340" as="sourcePoint"/>
                        <mxPoint x="378" y="545" as="targetPoint"/>
                    </mxGeometry>
                </mxCell>
                <mxCell id="k4k1UZGO1L8zrPOkd5_1-13" value="" style="ellipse;whiteSpace=wrap;html=1;aspect=fixed;gradientDirection=north;fillStyle=dots;fillColor=#000000;strokeColor=default;gradientColor=default;fontFamily=Comic Sans MS;" parent="1" vertex="1">
                    <mxGeometry x="375" y="432" width="5" height="5" as="geometry"/>
                </mxCell>
                <mxCell id="k4k1UZGO1L8zrPOkd5_1-15" value="D" style="text;html=1;align=center;verticalAlign=middle;whiteSpace=wrap;rounded=0;fontFamily=Comic Sans MS;" parent="1" vertex="1">
                    <mxGeometry x="325" y="428" width="60" height="30" as="geometry"/>
                </mxCell>
                <mxCell id="k4k1UZGO1L8zrPOkd5_1-16" value="G" style="text;html=1;align=center;verticalAlign=middle;whiteSpace=wrap;rounded=0;fontFamily=Comic Sans MS;" parent="1" vertex="1">
                    <mxGeometry x="305" y="385" width="60" height="30" as="geometry"/>
                </mxCell>
                <mxCell id="k4k1UZGO1L8zrPOkd5_1-17" value="S" style="text;html=1;align=center;verticalAlign=middle;whiteSpace=wrap;rounded=0;fontFamily=Comic Sans MS;" parent="1" vertex="1">
                    <mxGeometry x="275" y="428" width="60" height="30" as="geometry"/>
                </mxCell>
                <mxCell id="k4k1UZGO1L8zrPOkd5_1-18" value="Capacity" style="text;html=1;align=center;verticalAlign=middle;whiteSpace=wrap;rounded=0;fontFamily=Comic Sans MS;" parent="1" vertex="1">
                    <mxGeometry x="215" y="450" width="60" height="30" as="geometry"/>
                </mxCell>
                <mxCell id="ddxw3ri8FU7yxkL6Abtx-1" value="" style="endArrow=classic;html=1;sketch=1;curveFitting=1;jiggle=2;exitX=0.5;exitY=1;exitDx=0;exitDy=0;" edge="1" parent="1" source="ddxw3ri8FU7yxkL6Abtx-2">
                    <mxGeometry width="50" height="50" relative="1" as="geometry">
                        <mxPoint x="220" y="315" as="sourcePoint"/>
                        <mxPoint x="255" y="360" as="targetPoint"/>
                    </mxGeometry>
                </mxCell>
                <mxCell id="ddxw3ri8FU7yxkL6Abtx-2" value="First active(pre-charge)" style="text;html=1;align=center;verticalAlign=middle;whiteSpace=wrap;rounded=0;fontFamily=Comic Sans MS;" vertex="1" parent="1">
                    <mxGeometry x="175" y="310" width="140" height="30" as="geometry"/>
                </mxCell>
                <mxCell id="ddxw3ri8FU7yxkL6Abtx-3" value="Second active&lt;br&gt;(assign value)" style="text;html=1;align=center;verticalAlign=middle;whiteSpace=wrap;rounded=0;fontFamily=Comic Sans MS;" vertex="1" parent="1">
                    <mxGeometry x="370" y="480" width="100" height="45" as="geometry"/>
                </mxCell>
                <mxCell id="ddxw3ri8FU7yxkL6Abtx-4" value="" style="endArrow=classic;html=1;sketch=1;curveFitting=1;jiggle=2;exitX=0.25;exitY=0;exitDx=0;exitDy=0;" edge="1" parent="1" source="ddxw3ri8FU7yxkL6Abtx-3">
                    <mxGeometry width="50" height="50" relative="1" as="geometry">
                        <mxPoint x="390" y="428" as="sourcePoint"/>
                        <mxPoint x="380" y="460" as="targetPoint"/>
                    </mxGeometry>
                </mxCell>
            </root>
        </mxGraphModel>
    </diagram>
    <diagram id="5pYR8ZE02XJiU-1oykHa" name="bank architecture">
        <mxGraphModel dx="1492" dy="1558" grid="1" gridSize="10" guides="1" tooltips="1" connect="1" arrows="1" fold="1" page="1" pageScale="1" pageWidth="1169" pageHeight="827" math="0" shadow="0">
            <root>
                <mxCell id="0"/>
                <mxCell id="1" parent="0"/>
                <mxCell id="yAXOGC5h1cSZ5b9dVyXm-13" value="" style="group;movable=1;resizable=1;rotatable=1;deletable=1;editable=1;locked=0;connectable=1;sketch=1;curveFitting=1;jiggle=2;fontFamily=Comic Sans MS;" vertex="1" connectable="0" parent="1">
                    <mxGeometry x="790" y="160" width="310" height="370" as="geometry"/>
                </mxCell>
                <mxCell id="yAXOGC5h1cSZ5b9dVyXm-14" value="&lt;font style=&quot;font-size: 20px;&quot;&gt;Die&lt;/font&gt;" style="rounded=0;whiteSpace=wrap;html=1;align=left;verticalAlign=bottom;movable=1;resizable=1;rotatable=1;deletable=1;editable=1;locked=0;connectable=1;sketch=1;curveFitting=1;jiggle=2;fontFamily=Comic Sans MS;" vertex="1" parent="yAXOGC5h1cSZ5b9dVyXm-13">
                    <mxGeometry width="310" height="370" as="geometry"/>
                </mxCell>
                <mxCell id="yAXOGC5h1cSZ5b9dVyXm-15" value="&lt;font style=&quot;font-size: 19px;&quot;&gt;BANK 0&lt;/font&gt;" style="rounded=0;whiteSpace=wrap;html=1;movable=1;resizable=1;rotatable=1;deletable=1;editable=1;locked=0;connectable=1;sketch=1;curveFitting=1;jiggle=2;fontFamily=Comic Sans MS;" vertex="1" parent="yAXOGC5h1cSZ5b9dVyXm-13">
                    <mxGeometry x="45.925925925925924" y="25.517241379310345" width="103.33333333333333" height="140.3448275862069" as="geometry"/>
                </mxCell>
                <mxCell id="yAXOGC5h1cSZ5b9dVyXm-16" value="&lt;font style=&quot;font-size: 19px;&quot;&gt;BANK 1&lt;/font&gt;" style="rounded=0;whiteSpace=wrap;html=1;movable=1;resizable=1;rotatable=1;deletable=1;editable=1;locked=0;connectable=1;sketch=1;curveFitting=1;jiggle=2;fontFamily=Comic Sans MS;" vertex="1" parent="yAXOGC5h1cSZ5b9dVyXm-13">
                    <mxGeometry x="172.2222222222222" y="25.517241379310345" width="103.33333333333333" height="140.3448275862069" as="geometry"/>
                </mxCell>
                <mxCell id="yAXOGC5h1cSZ5b9dVyXm-17" value="&lt;font style=&quot;font-size: 19px;&quot;&gt;BANK 2&lt;/font&gt;" style="rounded=0;whiteSpace=wrap;html=1;movable=1;resizable=1;rotatable=1;deletable=1;editable=1;locked=0;connectable=1;sketch=1;curveFitting=1;jiggle=2;fontFamily=Comic Sans MS;" vertex="1" parent="yAXOGC5h1cSZ5b9dVyXm-13">
                    <mxGeometry x="45.925925925925924" y="195.20689655172413" width="103.33333333333333" height="140.3448275862069" as="geometry"/>
                </mxCell>
                <mxCell id="yAXOGC5h1cSZ5b9dVyXm-18" value="&lt;font style=&quot;font-size: 19px;&quot;&gt;BANK N&lt;/font&gt;" style="rounded=0;whiteSpace=wrap;html=1;movable=1;resizable=1;rotatable=1;deletable=1;editable=1;locked=0;connectable=1;sketch=1;curveFitting=1;jiggle=2;fontFamily=Comic Sans MS;" vertex="1" parent="yAXOGC5h1cSZ5b9dVyXm-13">
                    <mxGeometry x="172.2222222222222" y="195.20689655172413" width="103.33333333333333" height="140.3448275862069" as="geometry"/>
                </mxCell>
                <mxCell id="yAXOGC5h1cSZ5b9dVyXm-6" value="" style="group;sketch=1;curveFitting=1;jiggle=2;fontFamily=Comic Sans MS;" vertex="1" connectable="0" parent="1">
                    <mxGeometry x="80" y="190" width="310" height="370" as="geometry"/>
                </mxCell>
                <mxCell id="yAXOGC5h1cSZ5b9dVyXm-1" value="&lt;font style=&quot;font-size: 20px;&quot;&gt;Die&lt;/font&gt;" style="rounded=0;whiteSpace=wrap;html=1;align=left;verticalAlign=bottom;sketch=1;curveFitting=1;jiggle=2;fontFamily=Comic Sans MS;" vertex="1" parent="yAXOGC5h1cSZ5b9dVyXm-6">
                    <mxGeometry width="310" height="370" as="geometry"/>
                </mxCell>
                <mxCell id="yAXOGC5h1cSZ5b9dVyXm-2" value="&lt;font style=&quot;font-size: 19px;&quot;&gt;BANK 0&lt;/font&gt;" style="rounded=0;whiteSpace=wrap;html=1;sketch=1;curveFitting=1;jiggle=2;fontFamily=Comic Sans MS;" vertex="1" parent="yAXOGC5h1cSZ5b9dVyXm-6">
                    <mxGeometry x="45.925925925925924" y="25.517241379310345" width="103.33333333333333" height="140.3448275862069" as="geometry"/>
                </mxCell>
                <mxCell id="yAXOGC5h1cSZ5b9dVyXm-3" value="&lt;font style=&quot;font-size: 19px;&quot;&gt;BANK 1&lt;/font&gt;" style="rounded=0;whiteSpace=wrap;html=1;sketch=1;curveFitting=1;jiggle=2;fontFamily=Comic Sans MS;" vertex="1" parent="yAXOGC5h1cSZ5b9dVyXm-6">
                    <mxGeometry x="172.2222222222222" y="25.517241379310345" width="103.33333333333333" height="140.3448275862069" as="geometry"/>
                </mxCell>
                <mxCell id="yAXOGC5h1cSZ5b9dVyXm-4" value="&lt;font style=&quot;font-size: 19px;&quot;&gt;BANK 2&lt;/font&gt;" style="rounded=0;whiteSpace=wrap;html=1;sketch=1;curveFitting=1;jiggle=2;fontFamily=Comic Sans MS;" vertex="1" parent="yAXOGC5h1cSZ5b9dVyXm-6">
                    <mxGeometry x="45.925925925925924" y="195.20689655172413" width="103.33333333333333" height="140.3448275862069" as="geometry"/>
                </mxCell>
                <mxCell id="yAXOGC5h1cSZ5b9dVyXm-5" value="&lt;font style=&quot;font-size: 19px;&quot;&gt;BANK N&lt;/font&gt;" style="rounded=0;whiteSpace=wrap;html=1;sketch=1;curveFitting=1;jiggle=2;fontFamily=Comic Sans MS;" vertex="1" parent="yAXOGC5h1cSZ5b9dVyXm-6">
                    <mxGeometry x="172.2222222222222" y="195.20689655172413" width="103.33333333333333" height="140.3448275862069" as="geometry"/>
                </mxCell>
                <mxCell id="yAXOGC5h1cSZ5b9dVyXm-7" value="" style="group;movable=1;resizable=1;rotatable=1;deletable=1;editable=1;locked=0;connectable=1;sketch=1;curveFitting=1;jiggle=2;fontFamily=Comic Sans MS;" vertex="1" connectable="0" parent="1">
                    <mxGeometry x="700" y="210" width="310" height="370" as="geometry"/>
                </mxCell>
                <mxCell id="yAXOGC5h1cSZ5b9dVyXm-8" value="&lt;font style=&quot;font-size: 20px;&quot;&gt;Die&lt;/font&gt;" style="rounded=0;whiteSpace=wrap;html=1;align=left;verticalAlign=bottom;movable=1;resizable=1;rotatable=1;deletable=1;editable=1;locked=0;connectable=1;sketch=1;curveFitting=1;jiggle=2;fontFamily=Comic Sans MS;" vertex="1" parent="yAXOGC5h1cSZ5b9dVyXm-7">
                    <mxGeometry width="310" height="370" as="geometry"/>
                </mxCell>
                <mxCell id="yAXOGC5h1cSZ5b9dVyXm-9" value="&lt;font style=&quot;font-size: 19px;&quot;&gt;BANK 0&lt;/font&gt;" style="rounded=0;whiteSpace=wrap;html=1;movable=1;resizable=1;rotatable=1;deletable=1;editable=1;locked=0;connectable=1;sketch=1;curveFitting=1;jiggle=2;fontFamily=Comic Sans MS;" vertex="1" parent="yAXOGC5h1cSZ5b9dVyXm-7">
                    <mxGeometry x="45.925925925925924" y="25.517241379310345" width="103.33333333333333" height="140.3448275862069" as="geometry"/>
                </mxCell>
                <mxCell id="yAXOGC5h1cSZ5b9dVyXm-10" value="&lt;font style=&quot;font-size: 19px;&quot;&gt;BANK 1&lt;/font&gt;" style="rounded=0;whiteSpace=wrap;html=1;movable=1;resizable=1;rotatable=1;deletable=1;editable=1;locked=0;connectable=1;sketch=1;curveFitting=1;jiggle=2;fontFamily=Comic Sans MS;" vertex="1" parent="yAXOGC5h1cSZ5b9dVyXm-7">
                    <mxGeometry x="172.2222222222222" y="25.517241379310345" width="103.33333333333333" height="140.3448275862069" as="geometry"/>
                </mxCell>
                <mxCell id="yAXOGC5h1cSZ5b9dVyXm-11" value="&lt;font style=&quot;font-size: 19px;&quot;&gt;BANK 2&lt;/font&gt;" style="rounded=0;whiteSpace=wrap;html=1;movable=1;resizable=1;rotatable=1;deletable=1;editable=1;locked=0;connectable=1;sketch=1;curveFitting=1;jiggle=2;fontFamily=Comic Sans MS;" vertex="1" parent="yAXOGC5h1cSZ5b9dVyXm-7">
                    <mxGeometry x="45.925925925925924" y="195.20689655172413" width="103.33333333333333" height="140.3448275862069" as="geometry"/>
                </mxCell>
                <mxCell id="yAXOGC5h1cSZ5b9dVyXm-12" value="&lt;font style=&quot;font-size: 19px;&quot;&gt;BANK N&lt;/font&gt;" style="rounded=0;whiteSpace=wrap;html=1;movable=1;resizable=1;rotatable=1;deletable=1;editable=1;locked=0;connectable=1;sketch=1;curveFitting=1;jiggle=2;fontFamily=Comic Sans MS;" vertex="1" parent="yAXOGC5h1cSZ5b9dVyXm-7">
                    <mxGeometry x="172.2222222222222" y="195.20689655172413" width="103.33333333333333" height="140.3448275862069" as="geometry"/>
                </mxCell>
                <mxCell id="yAXOGC5h1cSZ5b9dVyXm-23" value="&lt;font style=&quot;font-size: 20px;&quot;&gt;CS_n&lt;/font&gt;" style="text;html=1;align=left;verticalAlign=middle;whiteSpace=wrap;rounded=0;sketch=1;curveFitting=1;jiggle=2;fontFamily=Comic Sans MS;" vertex="1" parent="1">
                    <mxGeometry x="530" y="230" width="70" height="30" as="geometry"/>
                </mxCell>
                <mxCell id="yAXOGC5h1cSZ5b9dVyXm-24" style="edgeStyle=orthogonalEdgeStyle;html=1;entryX=-0.003;entryY=0.068;entryDx=0;entryDy=0;entryPerimeter=0;rounded=0;curved=0;sketch=1;curveFitting=1;jiggle=2;fontFamily=Comic Sans MS;" edge="1" parent="1" source="yAXOGC5h1cSZ5b9dVyXm-23" target="yAXOGC5h1cSZ5b9dVyXm-14">
                    <mxGeometry relative="1" as="geometry">
                        <Array as="points">
                            <mxPoint x="670" y="245"/>
                            <mxPoint x="670" y="185"/>
                        </Array>
                    </mxGeometry>
                </mxCell>
                <mxCell id="yAXOGC5h1cSZ5b9dVyXm-25" style="edgeStyle=orthogonalEdgeStyle;html=1;entryX=-0.001;entryY=0.093;entryDx=0;entryDy=0;entryPerimeter=0;rounded=0;curved=0;sketch=1;curveFitting=1;jiggle=2;fontFamily=Comic Sans MS;" edge="1" parent="1" source="yAXOGC5h1cSZ5b9dVyXm-23" target="yAXOGC5h1cSZ5b9dVyXm-8">
                    <mxGeometry relative="1" as="geometry"/>
                </mxCell>
                <mxCell id="yAXOGC5h1cSZ5b9dVyXm-26" value="&lt;font style=&quot;font-size: 20px;&quot;&gt;CK&lt;/font&gt;" style="text;html=1;align=left;verticalAlign=middle;whiteSpace=wrap;rounded=0;sketch=1;curveFitting=1;jiggle=2;fontFamily=Comic Sans MS;" vertex="1" parent="1">
                    <mxGeometry x="530" y="280" width="70" height="30" as="geometry"/>
                </mxCell>
                <mxCell id="yAXOGC5h1cSZ5b9dVyXm-27" style="edgeStyle=none;html=1;sketch=1;curveFitting=1;jiggle=2;fontFamily=Comic Sans MS;" edge="1" parent="1" source="yAXOGC5h1cSZ5b9dVyXm-26">
                    <mxGeometry relative="1" as="geometry">
                        <mxPoint x="700" y="296" as="targetPoint"/>
                    </mxGeometry>
                </mxCell>
                <mxCell id="yAXOGC5h1cSZ5b9dVyXm-28" value="&lt;font style=&quot;font-size: 20px;&quot;&gt;RST_n&lt;/font&gt;" style="text;html=1;align=left;verticalAlign=middle;whiteSpace=wrap;rounded=0;sketch=1;curveFitting=1;jiggle=2;fontFamily=Comic Sans MS;" vertex="1" parent="1">
                    <mxGeometry x="530" y="320" width="70" height="30" as="geometry"/>
                </mxCell>
                <mxCell id="yAXOGC5h1cSZ5b9dVyXm-29" value="&lt;font style=&quot;font-size: 20px;&quot;&gt;CA&lt;/font&gt;" style="text;html=1;align=left;verticalAlign=middle;whiteSpace=wrap;rounded=0;sketch=1;curveFitting=1;jiggle=2;fontFamily=Comic Sans MS;" vertex="1" parent="1">
                    <mxGeometry x="530" y="360" width="70" height="30" as="geometry"/>
                </mxCell>
                <mxCell id="yAXOGC5h1cSZ5b9dVyXm-30" value="&lt;font style=&quot;font-size: 20px;&quot;&gt;DQ&lt;/font&gt;" style="text;html=1;align=left;verticalAlign=middle;whiteSpace=wrap;rounded=0;sketch=1;curveFitting=1;jiggle=2;fontFamily=Comic Sans MS;" vertex="1" parent="1">
                    <mxGeometry x="530" y="404" width="70" height="30" as="geometry"/>
                </mxCell>
                <mxCell id="yAXOGC5h1cSZ5b9dVyXm-33" style="edgeStyle=none;html=1;entryX=0.005;entryY=0.341;entryDx=0;entryDy=0;entryPerimeter=0;sketch=1;curveFitting=1;jiggle=2;fontFamily=Comic Sans MS;" edge="1" parent="1" source="yAXOGC5h1cSZ5b9dVyXm-28" target="yAXOGC5h1cSZ5b9dVyXm-8">
                    <mxGeometry relative="1" as="geometry"/>
                </mxCell>
                <mxCell id="yAXOGC5h1cSZ5b9dVyXm-34" style="edgeStyle=none;html=1;entryX=0.003;entryY=0.451;entryDx=0;entryDy=0;entryPerimeter=0;sketch=1;curveFitting=1;jiggle=2;fontFamily=Comic Sans MS;" edge="1" parent="1" source="yAXOGC5h1cSZ5b9dVyXm-29" target="yAXOGC5h1cSZ5b9dVyXm-8">
                    <mxGeometry relative="1" as="geometry"/>
                </mxCell>
                <mxCell id="yAXOGC5h1cSZ5b9dVyXm-35" style="edgeStyle=none;html=1;entryX=0;entryY=0.572;entryDx=0;entryDy=0;entryPerimeter=0;sketch=1;curveFitting=1;jiggle=2;startArrow=classic;startFill=1;fontFamily=Comic Sans MS;" edge="1" parent="1" source="yAXOGC5h1cSZ5b9dVyXm-30" target="yAXOGC5h1cSZ5b9dVyXm-8">
                    <mxGeometry relative="1" as="geometry"/>
                </mxCell>
            </root>
        </mxGraphModel>
    </diagram>
    <diagram id="mdY1NEwR-hffyKQ1dArm" name="package architecture">
        <mxGraphModel dx="878" dy="916" grid="1" gridSize="10" guides="1" tooltips="1" connect="1" arrows="1" fold="1" page="1" pageScale="1" pageWidth="1169" pageHeight="827" math="0" shadow="0">
            <root>
                <mxCell id="0"/>
                <mxCell id="1" parent="0"/>
                <mxCell id="2748x5JPsiAE_FRgJWna-100" value="&lt;font face=&quot;Comic Sans MS&quot; style=&quot;font-size: 30px;&quot;&gt;Package&lt;/font&gt;" style="rounded=0;whiteSpace=wrap;html=1;align=left;verticalAlign=bottom;" vertex="1" parent="1">
                    <mxGeometry x="140" y="70" width="950" height="735.48" as="geometry"/>
                </mxCell>
                <mxCell id="2748x5JPsiAE_FRgJWna-24" value="" style="group;flipV=0;movable=0;resizable=0;rotatable=0;deletable=0;editable=0;locked=1;connectable=0;" vertex="1" connectable="0" parent="1">
                    <mxGeometry x="160" y="110" width="940" height="710" as="geometry"/>
                </mxCell>
                <mxCell id="2748x5JPsiAE_FRgJWna-1" value="" style="group;movable=0;resizable=0;rotatable=0;deletable=0;editable=0;locked=1;connectable=0;sketch=1;curveFitting=1;jiggle=2;fontFamily=Comic Sans MS;" vertex="1" connectable="0" parent="2748x5JPsiAE_FRgJWna-24">
                    <mxGeometry x="182.4561403508772" width="217.5438596491228" height="255.47619047619045" as="geometry"/>
                </mxCell>
                <mxCell id="2748x5JPsiAE_FRgJWna-2" value="&lt;font style=&quot;font-size: 20px;&quot;&gt;Die&lt;/font&gt;" style="rounded=0;whiteSpace=wrap;html=1;align=left;verticalAlign=bottom;movable=0;resizable=0;rotatable=0;deletable=0;editable=0;locked=1;connectable=0;sketch=1;curveFitting=1;jiggle=2;fontFamily=Comic Sans MS;" vertex="1" parent="2748x5JPsiAE_FRgJWna-1">
                    <mxGeometry width="217.5438596491228" height="255.47619047619045" as="geometry"/>
                </mxCell>
                <mxCell id="2748x5JPsiAE_FRgJWna-3" value="&lt;font style=&quot;font-size: 19px;&quot;&gt;BANK 0&lt;/font&gt;" style="rounded=0;whiteSpace=wrap;html=1;movable=0;resizable=0;rotatable=0;deletable=0;editable=0;locked=1;connectable=0;sketch=1;curveFitting=1;jiggle=2;fontFamily=Comic Sans MS;" vertex="1" parent="2748x5JPsiAE_FRgJWna-1">
                    <mxGeometry x="32.228719948018195" y="17.619047619047617" width="72.51461988304094" height="96.9047619047619" as="geometry"/>
                </mxCell>
                <mxCell id="2748x5JPsiAE_FRgJWna-4" value="&lt;font style=&quot;font-size: 19px;&quot;&gt;BANK 1&lt;/font&gt;" style="rounded=0;whiteSpace=wrap;html=1;movable=0;resizable=0;rotatable=0;deletable=0;editable=0;locked=1;connectable=0;sketch=1;curveFitting=1;jiggle=2;fontFamily=Comic Sans MS;" vertex="1" parent="2748x5JPsiAE_FRgJWna-1">
                    <mxGeometry x="120.85769980506822" y="17.619047619047617" width="72.51461988304094" height="96.9047619047619" as="geometry"/>
                </mxCell>
                <mxCell id="2748x5JPsiAE_FRgJWna-5" value="&lt;font style=&quot;font-size: 19px;&quot;&gt;BANK 2&lt;/font&gt;" style="rounded=0;whiteSpace=wrap;html=1;movable=0;resizable=0;rotatable=0;deletable=0;editable=0;locked=1;connectable=0;sketch=1;curveFitting=1;jiggle=2;fontFamily=Comic Sans MS;" vertex="1" parent="2748x5JPsiAE_FRgJWna-1">
                    <mxGeometry x="32.228719948018195" y="134.78571428571428" width="72.51461988304094" height="96.9047619047619" as="geometry"/>
                </mxCell>
                <mxCell id="2748x5JPsiAE_FRgJWna-6" value="&lt;font style=&quot;font-size: 19px;&quot;&gt;BANK N&lt;/font&gt;" style="rounded=0;whiteSpace=wrap;html=1;movable=0;resizable=0;rotatable=0;deletable=0;editable=0;locked=1;connectable=0;sketch=1;curveFitting=1;jiggle=2;fontFamily=Comic Sans MS;" vertex="1" parent="2748x5JPsiAE_FRgJWna-1">
                    <mxGeometry x="120.85769980506822" y="134.78571428571428" width="72.51461988304094" height="96.9047619047619" as="geometry"/>
                </mxCell>
                <mxCell id="2748x5JPsiAE_FRgJWna-7" value="" style="group;movable=0;resizable=0;rotatable=0;deletable=0;editable=0;locked=1;connectable=0;sketch=1;curveFitting=1;jiggle=2;fontFamily=Comic Sans MS;" vertex="1" connectable="0" parent="2748x5JPsiAE_FRgJWna-24">
                    <mxGeometry x="119.2982456140351" y="34.52380952380952" width="217.5438596491228" height="255.47619047619045" as="geometry"/>
                </mxCell>
                <mxCell id="2748x5JPsiAE_FRgJWna-8" value="&lt;font style=&quot;font-size: 20px;&quot;&gt;Die&lt;/font&gt;" style="rounded=0;whiteSpace=wrap;html=1;align=left;verticalAlign=bottom;movable=0;resizable=0;rotatable=0;deletable=0;editable=0;locked=1;connectable=0;sketch=1;curveFitting=1;jiggle=2;fontFamily=Comic Sans MS;" vertex="1" parent="2748x5JPsiAE_FRgJWna-7">
                    <mxGeometry width="217.5438596491228" height="255.47619047619045" as="geometry"/>
                </mxCell>
                <mxCell id="2748x5JPsiAE_FRgJWna-9" value="&lt;font style=&quot;font-size: 19px;&quot;&gt;BANK 0&lt;/font&gt;" style="rounded=0;whiteSpace=wrap;html=1;movable=0;resizable=0;rotatable=0;deletable=0;editable=0;locked=1;connectable=0;sketch=1;curveFitting=1;jiggle=2;fontFamily=Comic Sans MS;" vertex="1" parent="2748x5JPsiAE_FRgJWna-7">
                    <mxGeometry x="32.228719948018195" y="17.619047619047617" width="72.51461988304094" height="96.9047619047619" as="geometry"/>
                </mxCell>
                <mxCell id="2748x5JPsiAE_FRgJWna-10" value="&lt;font style=&quot;font-size: 19px;&quot;&gt;BANK 1&lt;/font&gt;" style="rounded=0;whiteSpace=wrap;html=1;movable=0;resizable=0;rotatable=0;deletable=0;editable=0;locked=1;connectable=0;sketch=1;curveFitting=1;jiggle=2;fontFamily=Comic Sans MS;" vertex="1" parent="2748x5JPsiAE_FRgJWna-7">
                    <mxGeometry x="120.85769980506822" y="17.619047619047617" width="72.51461988304094" height="96.9047619047619" as="geometry"/>
                </mxCell>
                <mxCell id="2748x5JPsiAE_FRgJWna-11" value="&lt;font style=&quot;font-size: 19px;&quot;&gt;BANK 2&lt;/font&gt;" style="rounded=0;whiteSpace=wrap;html=1;movable=0;resizable=0;rotatable=0;deletable=0;editable=0;locked=1;connectable=0;sketch=1;curveFitting=1;jiggle=2;fontFamily=Comic Sans MS;" vertex="1" parent="2748x5JPsiAE_FRgJWna-7">
                    <mxGeometry x="32.228719948018195" y="134.78571428571428" width="72.51461988304094" height="96.9047619047619" as="geometry"/>
                </mxCell>
                <mxCell id="2748x5JPsiAE_FRgJWna-12" value="&lt;font style=&quot;font-size: 19px;&quot;&gt;BANK N&lt;/font&gt;" style="rounded=0;whiteSpace=wrap;html=1;movable=0;resizable=0;rotatable=0;deletable=0;editable=0;locked=1;connectable=0;sketch=1;curveFitting=1;jiggle=2;fontFamily=Comic Sans MS;" vertex="1" parent="2748x5JPsiAE_FRgJWna-7">
                    <mxGeometry x="120.85769980506822" y="134.78571428571428" width="72.51461988304094" height="96.9047619047619" as="geometry"/>
                </mxCell>
                <mxCell id="2748x5JPsiAE_FRgJWna-13" value="&lt;font style=&quot;font-size: 20px;&quot;&gt;CS_n&lt;/font&gt;" style="text;html=1;align=left;verticalAlign=middle;whiteSpace=wrap;rounded=0;sketch=1;curveFitting=1;jiggle=2;fontFamily=Comic Sans MS;movable=0;resizable=0;rotatable=0;deletable=0;editable=0;locked=1;connectable=0;" vertex="1" parent="2748x5JPsiAE_FRgJWna-24">
                    <mxGeometry y="48.33333333333333" width="49.12280701754386" height="20.71428571428571" as="geometry"/>
                </mxCell>
                <mxCell id="2748x5JPsiAE_FRgJWna-14" style="edgeStyle=orthogonalEdgeStyle;html=1;entryX=-0.003;entryY=0.068;entryDx=0;entryDy=0;entryPerimeter=0;rounded=0;curved=0;sketch=1;curveFitting=1;jiggle=2;fontFamily=Comic Sans MS;movable=0;resizable=0;rotatable=0;deletable=0;editable=0;locked=1;connectable=0;" edge="1" parent="2748x5JPsiAE_FRgJWna-24" source="2748x5JPsiAE_FRgJWna-13" target="2748x5JPsiAE_FRgJWna-2">
                    <mxGeometry relative="1" as="geometry">
                        <Array as="points">
                            <mxPoint x="98.24561403508773" y="58.690476190476204"/>
                            <mxPoint x="98.24561403508773" y="17.26190476190476"/>
                        </Array>
                    </mxGeometry>
                </mxCell>
                <mxCell id="2748x5JPsiAE_FRgJWna-15" style="edgeStyle=orthogonalEdgeStyle;html=1;entryX=-0.001;entryY=0.093;entryDx=0;entryDy=0;entryPerimeter=0;rounded=0;curved=0;sketch=1;curveFitting=1;jiggle=2;fontFamily=Comic Sans MS;movable=0;resizable=0;rotatable=0;deletable=0;editable=0;locked=1;connectable=0;" edge="1" parent="2748x5JPsiAE_FRgJWna-24" source="2748x5JPsiAE_FRgJWna-13" target="2748x5JPsiAE_FRgJWna-8">
                    <mxGeometry relative="1" as="geometry"/>
                </mxCell>
                <mxCell id="2748x5JPsiAE_FRgJWna-16" value="&lt;font style=&quot;font-size: 20px;&quot;&gt;CK&lt;/font&gt;" style="text;html=1;align=left;verticalAlign=middle;whiteSpace=wrap;rounded=0;sketch=1;curveFitting=1;jiggle=2;fontFamily=Comic Sans MS;movable=0;resizable=0;rotatable=0;deletable=0;editable=0;locked=1;connectable=0;" vertex="1" parent="2748x5JPsiAE_FRgJWna-24">
                    <mxGeometry y="82.85714285714285" width="49.12280701754386" height="20.71428571428571" as="geometry"/>
                </mxCell>
                <mxCell id="2748x5JPsiAE_FRgJWna-17" style="edgeStyle=none;html=1;sketch=1;curveFitting=1;jiggle=2;fontFamily=Comic Sans MS;movable=0;resizable=0;rotatable=0;deletable=0;editable=0;locked=1;connectable=0;" edge="1" parent="2748x5JPsiAE_FRgJWna-24" source="2748x5JPsiAE_FRgJWna-16">
                    <mxGeometry relative="1" as="geometry">
                        <mxPoint x="119.2982456140351" y="93.90476190476193" as="targetPoint"/>
                    </mxGeometry>
                </mxCell>
                <mxCell id="2748x5JPsiAE_FRgJWna-18" value="&lt;font style=&quot;font-size: 20px;&quot;&gt;RST_n&lt;/font&gt;" style="text;html=1;align=left;verticalAlign=middle;whiteSpace=wrap;rounded=0;sketch=1;curveFitting=1;jiggle=2;fontFamily=Comic Sans MS;movable=0;resizable=0;rotatable=0;deletable=0;editable=0;locked=1;connectable=0;" vertex="1" parent="2748x5JPsiAE_FRgJWna-24">
                    <mxGeometry y="110.47619047619047" width="49.12280701754386" height="20.71428571428571" as="geometry"/>
                </mxCell>
                <mxCell id="2748x5JPsiAE_FRgJWna-19" value="&lt;font style=&quot;font-size: 20px;&quot;&gt;CA&lt;/font&gt;" style="text;html=1;align=left;verticalAlign=middle;whiteSpace=wrap;rounded=0;sketch=1;curveFitting=1;jiggle=2;fontFamily=Comic Sans MS;movable=0;resizable=0;rotatable=0;deletable=0;editable=0;locked=1;connectable=0;" vertex="1" parent="2748x5JPsiAE_FRgJWna-24">
                    <mxGeometry y="138.0952380952381" width="49.12280701754386" height="20.71428571428571" as="geometry"/>
                </mxCell>
                <mxCell id="2748x5JPsiAE_FRgJWna-20" value="&lt;font style=&quot;font-size: 20px;&quot;&gt;DQ&lt;/font&gt;" style="text;html=1;align=left;verticalAlign=middle;whiteSpace=wrap;rounded=0;sketch=1;curveFitting=1;jiggle=2;fontFamily=Comic Sans MS;movable=0;resizable=0;rotatable=0;deletable=0;editable=0;locked=1;connectable=0;" vertex="1" parent="2748x5JPsiAE_FRgJWna-24">
                    <mxGeometry y="168.47619047619048" width="49.12280701754386" height="20.71428571428571" as="geometry"/>
                </mxCell>
                <mxCell id="2748x5JPsiAE_FRgJWna-21" style="edgeStyle=none;html=1;entryX=0.005;entryY=0.341;entryDx=0;entryDy=0;entryPerimeter=0;sketch=1;curveFitting=1;jiggle=2;fontFamily=Comic Sans MS;movable=0;resizable=0;rotatable=0;deletable=0;editable=0;locked=1;connectable=0;" edge="1" parent="2748x5JPsiAE_FRgJWna-24" source="2748x5JPsiAE_FRgJWna-18" target="2748x5JPsiAE_FRgJWna-8">
                    <mxGeometry relative="1" as="geometry"/>
                </mxCell>
                <mxCell id="2748x5JPsiAE_FRgJWna-22" style="edgeStyle=none;html=1;entryX=0.003;entryY=0.451;entryDx=0;entryDy=0;entryPerimeter=0;sketch=1;curveFitting=1;jiggle=2;fontFamily=Comic Sans MS;movable=0;resizable=0;rotatable=0;deletable=0;editable=0;locked=1;connectable=0;" edge="1" parent="2748x5JPsiAE_FRgJWna-24" source="2748x5JPsiAE_FRgJWna-19" target="2748x5JPsiAE_FRgJWna-8">
                    <mxGeometry relative="1" as="geometry"/>
                </mxCell>
                <mxCell id="2748x5JPsiAE_FRgJWna-23" style="edgeStyle=none;html=1;entryX=0;entryY=0.572;entryDx=0;entryDy=0;entryPerimeter=0;sketch=1;curveFitting=1;jiggle=2;startArrow=classic;startFill=1;fontFamily=Comic Sans MS;movable=0;resizable=0;rotatable=0;deletable=0;editable=0;locked=1;connectable=0;" edge="1" parent="2748x5JPsiAE_FRgJWna-24" source="2748x5JPsiAE_FRgJWna-20" target="2748x5JPsiAE_FRgJWna-8">
                    <mxGeometry relative="1" as="geometry"/>
                </mxCell>
                <mxCell id="2748x5JPsiAE_FRgJWna-25" value="" style="group;movable=0;resizable=0;rotatable=0;deletable=0;editable=0;locked=1;connectable=0;" vertex="1" connectable="0" parent="1">
                    <mxGeometry x="160" y="470" width="400" height="290" as="geometry"/>
                </mxCell>
                <mxCell id="2748x5JPsiAE_FRgJWna-26" value="" style="group;movable=0;resizable=0;rotatable=0;deletable=0;editable=0;locked=1;connectable=0;sketch=1;curveFitting=1;jiggle=2;fontFamily=Comic Sans MS;" vertex="1" connectable="0" parent="2748x5JPsiAE_FRgJWna-25">
                    <mxGeometry x="182.4561403508772" width="217.5438596491228" height="255.47619047619045" as="geometry"/>
                </mxCell>
                <mxCell id="2748x5JPsiAE_FRgJWna-27" value="&lt;font style=&quot;font-size: 20px;&quot;&gt;Die&lt;/font&gt;" style="rounded=0;whiteSpace=wrap;html=1;align=left;verticalAlign=bottom;movable=0;resizable=0;rotatable=0;deletable=0;editable=0;locked=1;connectable=0;sketch=1;curveFitting=1;jiggle=2;fontFamily=Comic Sans MS;" vertex="1" parent="2748x5JPsiAE_FRgJWna-26">
                    <mxGeometry width="217.5438596491228" height="255.47619047619045" as="geometry"/>
                </mxCell>
                <mxCell id="2748x5JPsiAE_FRgJWna-28" value="&lt;font style=&quot;font-size: 19px;&quot;&gt;BANK 0&lt;/font&gt;" style="rounded=0;whiteSpace=wrap;html=1;movable=0;resizable=0;rotatable=0;deletable=0;editable=0;locked=1;connectable=0;sketch=1;curveFitting=1;jiggle=2;fontFamily=Comic Sans MS;" vertex="1" parent="2748x5JPsiAE_FRgJWna-26">
                    <mxGeometry x="32.228719948018195" y="17.619047619047617" width="72.51461988304094" height="96.9047619047619" as="geometry"/>
                </mxCell>
                <mxCell id="2748x5JPsiAE_FRgJWna-29" value="&lt;font style=&quot;font-size: 19px;&quot;&gt;BANK 1&lt;/font&gt;" style="rounded=0;whiteSpace=wrap;html=1;movable=0;resizable=0;rotatable=0;deletable=0;editable=0;locked=1;connectable=0;sketch=1;curveFitting=1;jiggle=2;fontFamily=Comic Sans MS;" vertex="1" parent="2748x5JPsiAE_FRgJWna-26">
                    <mxGeometry x="120.85769980506822" y="17.619047619047617" width="72.51461988304094" height="96.9047619047619" as="geometry"/>
                </mxCell>
                <mxCell id="2748x5JPsiAE_FRgJWna-30" value="&lt;font style=&quot;font-size: 19px;&quot;&gt;BANK 2&lt;/font&gt;" style="rounded=0;whiteSpace=wrap;html=1;movable=0;resizable=0;rotatable=0;deletable=0;editable=0;locked=1;connectable=0;sketch=1;curveFitting=1;jiggle=2;fontFamily=Comic Sans MS;" vertex="1" parent="2748x5JPsiAE_FRgJWna-26">
                    <mxGeometry x="32.228719948018195" y="134.78571428571428" width="72.51461988304094" height="96.9047619047619" as="geometry"/>
                </mxCell>
                <mxCell id="2748x5JPsiAE_FRgJWna-31" value="&lt;font style=&quot;font-size: 19px;&quot;&gt;BANK N&lt;/font&gt;" style="rounded=0;whiteSpace=wrap;html=1;movable=0;resizable=0;rotatable=0;deletable=0;editable=0;locked=1;connectable=0;sketch=1;curveFitting=1;jiggle=2;fontFamily=Comic Sans MS;" vertex="1" parent="2748x5JPsiAE_FRgJWna-26">
                    <mxGeometry x="120.85769980506822" y="134.78571428571428" width="72.51461988304094" height="96.9047619047619" as="geometry"/>
                </mxCell>
                <mxCell id="2748x5JPsiAE_FRgJWna-32" value="" style="group;movable=0;resizable=0;rotatable=0;deletable=0;editable=0;locked=1;connectable=0;sketch=1;curveFitting=1;jiggle=2;fontFamily=Comic Sans MS;" vertex="1" connectable="0" parent="2748x5JPsiAE_FRgJWna-25">
                    <mxGeometry x="119.2982456140351" y="34.523809523809526" width="217.5438596491228" height="255.47619047619045" as="geometry"/>
                </mxCell>
                <mxCell id="2748x5JPsiAE_FRgJWna-33" value="&lt;font style=&quot;font-size: 20px;&quot;&gt;Die&lt;/font&gt;" style="rounded=0;whiteSpace=wrap;html=1;align=left;verticalAlign=bottom;movable=0;resizable=0;rotatable=0;deletable=0;editable=0;locked=1;connectable=0;sketch=1;curveFitting=1;jiggle=2;fontFamily=Comic Sans MS;" vertex="1" parent="2748x5JPsiAE_FRgJWna-32">
                    <mxGeometry width="217.5438596491228" height="255.47619047619045" as="geometry"/>
                </mxCell>
                <mxCell id="2748x5JPsiAE_FRgJWna-34" value="&lt;font style=&quot;font-size: 19px;&quot;&gt;BANK 0&lt;/font&gt;" style="rounded=0;whiteSpace=wrap;html=1;movable=0;resizable=0;rotatable=0;deletable=0;editable=0;locked=1;connectable=0;sketch=1;curveFitting=1;jiggle=2;fontFamily=Comic Sans MS;" vertex="1" parent="2748x5JPsiAE_FRgJWna-32">
                    <mxGeometry x="32.228719948018195" y="17.619047619047617" width="72.51461988304094" height="96.9047619047619" as="geometry"/>
                </mxCell>
                <mxCell id="2748x5JPsiAE_FRgJWna-35" value="&lt;font style=&quot;font-size: 19px;&quot;&gt;BANK 1&lt;/font&gt;" style="rounded=0;whiteSpace=wrap;html=1;movable=0;resizable=0;rotatable=0;deletable=0;editable=0;locked=1;connectable=0;sketch=1;curveFitting=1;jiggle=2;fontFamily=Comic Sans MS;" vertex="1" parent="2748x5JPsiAE_FRgJWna-32">
                    <mxGeometry x="120.85769980506822" y="17.619047619047617" width="72.51461988304094" height="96.9047619047619" as="geometry"/>
                </mxCell>
                <mxCell id="2748x5JPsiAE_FRgJWna-36" value="&lt;font style=&quot;font-size: 19px;&quot;&gt;BANK 2&lt;/font&gt;" style="rounded=0;whiteSpace=wrap;html=1;movable=0;resizable=0;rotatable=0;deletable=0;editable=0;locked=1;connectable=0;sketch=1;curveFitting=1;jiggle=2;fontFamily=Comic Sans MS;" vertex="1" parent="2748x5JPsiAE_FRgJWna-32">
                    <mxGeometry x="32.228719948018195" y="134.78571428571428" width="72.51461988304094" height="96.9047619047619" as="geometry"/>
                </mxCell>
                <mxCell id="2748x5JPsiAE_FRgJWna-37" value="&lt;font style=&quot;font-size: 19px;&quot;&gt;BANK N&lt;/font&gt;" style="rounded=0;whiteSpace=wrap;html=1;movable=0;resizable=0;rotatable=0;deletable=0;editable=0;locked=1;connectable=0;sketch=1;curveFitting=1;jiggle=2;fontFamily=Comic Sans MS;" vertex="1" parent="2748x5JPsiAE_FRgJWna-32">
                    <mxGeometry x="120.85769980506822" y="134.78571428571428" width="72.51461988304094" height="96.9047619047619" as="geometry"/>
                </mxCell>
                <mxCell id="2748x5JPsiAE_FRgJWna-38" value="&lt;font style=&quot;font-size: 20px;&quot;&gt;CS_n&lt;/font&gt;" style="text;html=1;align=left;verticalAlign=middle;whiteSpace=wrap;rounded=0;sketch=1;curveFitting=1;jiggle=2;fontFamily=Comic Sans MS;movable=0;resizable=0;rotatable=0;deletable=0;editable=0;locked=1;connectable=0;" vertex="1" parent="2748x5JPsiAE_FRgJWna-25">
                    <mxGeometry y="48.33333333333333" width="49.12280701754386" height="20.71428571428571" as="geometry"/>
                </mxCell>
                <mxCell id="2748x5JPsiAE_FRgJWna-39" style="edgeStyle=orthogonalEdgeStyle;html=1;entryX=-0.003;entryY=0.068;entryDx=0;entryDy=0;entryPerimeter=0;rounded=0;curved=0;sketch=1;curveFitting=1;jiggle=2;fontFamily=Comic Sans MS;movable=0;resizable=0;rotatable=0;deletable=0;editable=0;locked=1;connectable=0;" edge="1" parent="2748x5JPsiAE_FRgJWna-25" source="2748x5JPsiAE_FRgJWna-38" target="2748x5JPsiAE_FRgJWna-27">
                    <mxGeometry relative="1" as="geometry">
                        <Array as="points">
                            <mxPoint x="98.24561403508773" y="58.69047619047619"/>
                            <mxPoint x="98.24561403508773" y="17.261904761904763"/>
                        </Array>
                    </mxGeometry>
                </mxCell>
                <mxCell id="2748x5JPsiAE_FRgJWna-40" style="edgeStyle=orthogonalEdgeStyle;html=1;entryX=-0.001;entryY=0.093;entryDx=0;entryDy=0;entryPerimeter=0;rounded=0;curved=0;sketch=1;curveFitting=1;jiggle=2;fontFamily=Comic Sans MS;movable=0;resizable=0;rotatable=0;deletable=0;editable=0;locked=1;connectable=0;" edge="1" parent="2748x5JPsiAE_FRgJWna-25" source="2748x5JPsiAE_FRgJWna-38" target="2748x5JPsiAE_FRgJWna-33">
                    <mxGeometry relative="1" as="geometry"/>
                </mxCell>
                <mxCell id="2748x5JPsiAE_FRgJWna-41" value="&lt;font style=&quot;font-size: 20px;&quot;&gt;CK&lt;/font&gt;" style="text;html=1;align=left;verticalAlign=middle;whiteSpace=wrap;rounded=0;sketch=1;curveFitting=1;jiggle=2;fontFamily=Comic Sans MS;movable=0;resizable=0;rotatable=0;deletable=0;editable=0;locked=1;connectable=0;" vertex="1" parent="2748x5JPsiAE_FRgJWna-25">
                    <mxGeometry y="82.85714285714285" width="49.12280701754386" height="20.71428571428571" as="geometry"/>
                </mxCell>
                <mxCell id="2748x5JPsiAE_FRgJWna-42" style="edgeStyle=none;html=1;sketch=1;curveFitting=1;jiggle=2;fontFamily=Comic Sans MS;movable=0;resizable=0;rotatable=0;deletable=0;editable=0;locked=1;connectable=0;" edge="1" parent="2748x5JPsiAE_FRgJWna-25" source="2748x5JPsiAE_FRgJWna-41">
                    <mxGeometry relative="1" as="geometry">
                        <mxPoint x="119.2982456140351" y="93.90476190476191" as="targetPoint"/>
                    </mxGeometry>
                </mxCell>
                <mxCell id="2748x5JPsiAE_FRgJWna-43" value="&lt;font style=&quot;font-size: 20px;&quot;&gt;RST_n&lt;/font&gt;" style="text;html=1;align=left;verticalAlign=middle;whiteSpace=wrap;rounded=0;sketch=1;curveFitting=1;jiggle=2;fontFamily=Comic Sans MS;movable=0;resizable=0;rotatable=0;deletable=0;editable=0;locked=1;connectable=0;" vertex="1" parent="2748x5JPsiAE_FRgJWna-25">
                    <mxGeometry y="110.47619047619047" width="49.12280701754386" height="20.71428571428571" as="geometry"/>
                </mxCell>
                <mxCell id="2748x5JPsiAE_FRgJWna-44" value="&lt;font style=&quot;font-size: 20px;&quot;&gt;CA&lt;/font&gt;" style="text;html=1;align=left;verticalAlign=middle;whiteSpace=wrap;rounded=0;sketch=1;curveFitting=1;jiggle=2;fontFamily=Comic Sans MS;movable=0;resizable=0;rotatable=0;deletable=0;editable=0;locked=1;connectable=0;" vertex="1" parent="2748x5JPsiAE_FRgJWna-25">
                    <mxGeometry y="138.0952380952381" width="49.12280701754386" height="20.71428571428571" as="geometry"/>
                </mxCell>
                <mxCell id="2748x5JPsiAE_FRgJWna-45" value="&lt;font style=&quot;font-size: 20px;&quot;&gt;DQ&lt;/font&gt;" style="text;html=1;align=left;verticalAlign=middle;whiteSpace=wrap;rounded=0;sketch=1;curveFitting=1;jiggle=2;fontFamily=Comic Sans MS;movable=0;resizable=0;rotatable=0;deletable=0;editable=0;locked=1;connectable=0;" vertex="1" parent="2748x5JPsiAE_FRgJWna-25">
                    <mxGeometry y="168.47619047619048" width="49.12280701754386" height="20.71428571428571" as="geometry"/>
                </mxCell>
                <mxCell id="2748x5JPsiAE_FRgJWna-46" style="edgeStyle=none;html=1;entryX=0.005;entryY=0.341;entryDx=0;entryDy=0;entryPerimeter=0;sketch=1;curveFitting=1;jiggle=2;fontFamily=Comic Sans MS;movable=0;resizable=0;rotatable=0;deletable=0;editable=0;locked=1;connectable=0;" edge="1" parent="2748x5JPsiAE_FRgJWna-25" source="2748x5JPsiAE_FRgJWna-43" target="2748x5JPsiAE_FRgJWna-33">
                    <mxGeometry relative="1" as="geometry"/>
                </mxCell>
                <mxCell id="2748x5JPsiAE_FRgJWna-47" style="edgeStyle=none;html=1;entryX=0.003;entryY=0.451;entryDx=0;entryDy=0;entryPerimeter=0;sketch=1;curveFitting=1;jiggle=2;fontFamily=Comic Sans MS;movable=0;resizable=0;rotatable=0;deletable=0;editable=0;locked=1;connectable=0;" edge="1" parent="2748x5JPsiAE_FRgJWna-25" source="2748x5JPsiAE_FRgJWna-44" target="2748x5JPsiAE_FRgJWna-33">
                    <mxGeometry relative="1" as="geometry"/>
                </mxCell>
                <mxCell id="2748x5JPsiAE_FRgJWna-48" style="edgeStyle=none;html=1;entryX=0;entryY=0.572;entryDx=0;entryDy=0;entryPerimeter=0;sketch=1;curveFitting=1;jiggle=2;startArrow=classic;startFill=1;fontFamily=Comic Sans MS;movable=0;resizable=0;rotatable=0;deletable=0;editable=0;locked=1;connectable=0;" edge="1" parent="2748x5JPsiAE_FRgJWna-25" source="2748x5JPsiAE_FRgJWna-45" target="2748x5JPsiAE_FRgJWna-33">
                    <mxGeometry relative="1" as="geometry"/>
                </mxCell>
                <mxCell id="2748x5JPsiAE_FRgJWna-75" value="" style="group;movable=0;resizable=0;rotatable=0;deletable=0;editable=0;locked=1;connectable=0;" vertex="1" connectable="0" parent="1">
                    <mxGeometry x="660" y="110" width="400" height="290" as="geometry"/>
                </mxCell>
                <mxCell id="2748x5JPsiAE_FRgJWna-50" value="" style="group;movable=0;resizable=0;rotatable=0;deletable=0;editable=0;locked=1;connectable=0;sketch=1;curveFitting=1;jiggle=2;fontFamily=Comic Sans MS;" vertex="1" connectable="0" parent="2748x5JPsiAE_FRgJWna-75">
                    <mxGeometry width="217.5438596491228" height="255.47619047619045" as="geometry"/>
                </mxCell>
                <mxCell id="2748x5JPsiAE_FRgJWna-51" value="&lt;font style=&quot;font-size: 20px;&quot;&gt;Die&lt;/font&gt;" style="rounded=0;whiteSpace=wrap;html=1;align=left;verticalAlign=bottom;movable=0;resizable=0;rotatable=0;deletable=0;editable=0;locked=1;connectable=0;sketch=1;curveFitting=1;jiggle=2;fontFamily=Comic Sans MS;" vertex="1" parent="2748x5JPsiAE_FRgJWna-50">
                    <mxGeometry width="217.5438596491228" height="255.47619047619045" as="geometry"/>
                </mxCell>
                <mxCell id="2748x5JPsiAE_FRgJWna-52" value="&lt;font style=&quot;font-size: 19px;&quot;&gt;BANK 0&lt;/font&gt;" style="rounded=0;whiteSpace=wrap;html=1;movable=0;resizable=0;rotatable=0;deletable=0;editable=0;locked=1;connectable=0;sketch=1;curveFitting=1;jiggle=2;fontFamily=Comic Sans MS;" vertex="1" parent="2748x5JPsiAE_FRgJWna-50">
                    <mxGeometry x="32.228719948018195" y="17.619047619047617" width="72.51461988304094" height="96.9047619047619" as="geometry"/>
                </mxCell>
                <mxCell id="2748x5JPsiAE_FRgJWna-53" value="&lt;font style=&quot;font-size: 19px;&quot;&gt;BANK 1&lt;/font&gt;" style="rounded=0;whiteSpace=wrap;html=1;movable=0;resizable=0;rotatable=0;deletable=0;editable=0;locked=1;connectable=0;sketch=1;curveFitting=1;jiggle=2;fontFamily=Comic Sans MS;" vertex="1" parent="2748x5JPsiAE_FRgJWna-50">
                    <mxGeometry x="120.85769980506822" y="17.619047619047617" width="72.51461988304094" height="96.9047619047619" as="geometry"/>
                </mxCell>
                <mxCell id="2748x5JPsiAE_FRgJWna-54" value="&lt;font style=&quot;font-size: 19px;&quot;&gt;BANK 2&lt;/font&gt;" style="rounded=0;whiteSpace=wrap;html=1;movable=0;resizable=0;rotatable=0;deletable=0;editable=0;locked=1;connectable=0;sketch=1;curveFitting=1;jiggle=2;fontFamily=Comic Sans MS;" vertex="1" parent="2748x5JPsiAE_FRgJWna-50">
                    <mxGeometry x="32.228719948018195" y="134.78571428571428" width="72.51461988304094" height="96.9047619047619" as="geometry"/>
                </mxCell>
                <mxCell id="2748x5JPsiAE_FRgJWna-55" value="&lt;font style=&quot;font-size: 19px;&quot;&gt;BANK N&lt;/font&gt;" style="rounded=0;whiteSpace=wrap;html=1;movable=0;resizable=0;rotatable=0;deletable=0;editable=0;locked=1;connectable=0;sketch=1;curveFitting=1;jiggle=2;fontFamily=Comic Sans MS;" vertex="1" parent="2748x5JPsiAE_FRgJWna-50">
                    <mxGeometry x="120.85769980506822" y="134.78571428571428" width="72.51461988304094" height="96.9047619047619" as="geometry"/>
                </mxCell>
                <mxCell id="2748x5JPsiAE_FRgJWna-56" value="" style="group;movable=0;resizable=0;rotatable=0;deletable=0;editable=0;locked=1;connectable=0;sketch=1;curveFitting=1;jiggle=2;fontFamily=Comic Sans MS;" vertex="1" connectable="0" parent="2748x5JPsiAE_FRgJWna-75">
                    <mxGeometry x="63.15789473684208" y="34.52380952380952" width="217.5438596491228" height="255.47619047619045" as="geometry"/>
                </mxCell>
                <mxCell id="2748x5JPsiAE_FRgJWna-57" value="&lt;font style=&quot;font-size: 20px;&quot;&gt;Die&lt;/font&gt;" style="rounded=0;whiteSpace=wrap;html=1;align=left;verticalAlign=bottom;movable=0;resizable=0;rotatable=0;deletable=0;editable=0;locked=1;connectable=0;sketch=1;curveFitting=1;jiggle=2;fontFamily=Comic Sans MS;" vertex="1" parent="2748x5JPsiAE_FRgJWna-56">
                    <mxGeometry width="217.5438596491228" height="255.47619047619045" as="geometry"/>
                </mxCell>
                <mxCell id="2748x5JPsiAE_FRgJWna-58" value="&lt;font style=&quot;font-size: 19px;&quot;&gt;BANK 0&lt;/font&gt;" style="rounded=0;whiteSpace=wrap;html=1;movable=0;resizable=0;rotatable=0;deletable=0;editable=0;locked=1;connectable=0;sketch=1;curveFitting=1;jiggle=2;fontFamily=Comic Sans MS;" vertex="1" parent="2748x5JPsiAE_FRgJWna-56">
                    <mxGeometry x="32.228719948018195" y="17.619047619047617" width="72.51461988304094" height="96.9047619047619" as="geometry"/>
                </mxCell>
                <mxCell id="2748x5JPsiAE_FRgJWna-59" value="&lt;font style=&quot;font-size: 19px;&quot;&gt;BANK 1&lt;/font&gt;" style="rounded=0;whiteSpace=wrap;html=1;movable=0;resizable=0;rotatable=0;deletable=0;editable=0;locked=1;connectable=0;sketch=1;curveFitting=1;jiggle=2;fontFamily=Comic Sans MS;" vertex="1" parent="2748x5JPsiAE_FRgJWna-56">
                    <mxGeometry x="120.85769980506822" y="17.619047619047617" width="72.51461988304094" height="96.9047619047619" as="geometry"/>
                </mxCell>
                <mxCell id="2748x5JPsiAE_FRgJWna-60" value="&lt;font style=&quot;font-size: 19px;&quot;&gt;BANK 2&lt;/font&gt;" style="rounded=0;whiteSpace=wrap;html=1;movable=0;resizable=0;rotatable=0;deletable=0;editable=0;locked=1;connectable=0;sketch=1;curveFitting=1;jiggle=2;fontFamily=Comic Sans MS;" vertex="1" parent="2748x5JPsiAE_FRgJWna-56">
                    <mxGeometry x="32.228719948018195" y="134.78571428571428" width="72.51461988304094" height="96.9047619047619" as="geometry"/>
                </mxCell>
                <mxCell id="2748x5JPsiAE_FRgJWna-61" value="&lt;font style=&quot;font-size: 19px;&quot;&gt;BANK N&lt;/font&gt;" style="rounded=0;whiteSpace=wrap;html=1;movable=0;resizable=0;rotatable=0;deletable=0;editable=0;locked=1;connectable=0;sketch=1;curveFitting=1;jiggle=2;fontFamily=Comic Sans MS;" vertex="1" parent="2748x5JPsiAE_FRgJWna-56">
                    <mxGeometry x="120.85769980506822" y="134.78571428571428" width="72.51461988304094" height="96.9047619047619" as="geometry"/>
                </mxCell>
                <mxCell id="2748x5JPsiAE_FRgJWna-62" value="&lt;font style=&quot;font-size: 20px;&quot;&gt;CS_n&lt;/font&gt;" style="text;html=1;align=left;verticalAlign=middle;whiteSpace=wrap;rounded=0;sketch=1;curveFitting=1;jiggle=2;fontFamily=Comic Sans MS;movable=0;resizable=0;rotatable=0;deletable=0;editable=0;locked=1;connectable=0;" vertex="1" parent="2748x5JPsiAE_FRgJWna-75">
                    <mxGeometry x="350.8771929824561" y="48.333333333333314" width="49.12280701754386" height="20.71428571428571" as="geometry"/>
                </mxCell>
                <mxCell id="2748x5JPsiAE_FRgJWna-65" value="&lt;font style=&quot;font-size: 20px;&quot;&gt;CK&lt;/font&gt;" style="text;html=1;align=left;verticalAlign=middle;whiteSpace=wrap;rounded=0;sketch=1;curveFitting=1;jiggle=2;fontFamily=Comic Sans MS;movable=0;resizable=0;rotatable=0;deletable=0;editable=0;locked=1;connectable=0;" vertex="1" parent="2748x5JPsiAE_FRgJWna-75">
                    <mxGeometry x="350.8771929824561" y="82.85714285714283" width="49.12280701754386" height="20.71428571428571" as="geometry"/>
                </mxCell>
                <mxCell id="2748x5JPsiAE_FRgJWna-66" style="edgeStyle=none;html=1;sketch=1;curveFitting=1;jiggle=2;fontFamily=Comic Sans MS;movable=0;resizable=0;rotatable=0;deletable=0;editable=0;locked=1;connectable=0;" edge="1" parent="2748x5JPsiAE_FRgJWna-75" source="2748x5JPsiAE_FRgJWna-65">
                    <mxGeometry relative="1" as="geometry">
                        <mxPoint x="280.70175438596493" y="93.90476190476193" as="targetPoint"/>
                    </mxGeometry>
                </mxCell>
                <mxCell id="2748x5JPsiAE_FRgJWna-67" value="&lt;font style=&quot;font-size: 20px;&quot;&gt;RST_n&lt;/font&gt;" style="text;html=1;align=left;verticalAlign=middle;whiteSpace=wrap;rounded=0;sketch=1;curveFitting=1;jiggle=2;fontFamily=Comic Sans MS;movable=0;resizable=0;rotatable=0;deletable=0;editable=0;locked=1;connectable=0;" vertex="1" parent="2748x5JPsiAE_FRgJWna-75">
                    <mxGeometry x="350.8771929824561" y="110.47619047619048" width="49.12280701754386" height="20.71428571428571" as="geometry"/>
                </mxCell>
                <mxCell id="2748x5JPsiAE_FRgJWna-68" value="&lt;font style=&quot;font-size: 20px;&quot;&gt;CA&lt;/font&gt;" style="text;html=1;align=left;verticalAlign=middle;whiteSpace=wrap;rounded=0;sketch=1;curveFitting=1;jiggle=2;fontFamily=Comic Sans MS;movable=0;resizable=0;rotatable=0;deletable=0;editable=0;locked=1;connectable=0;" vertex="1" parent="2748x5JPsiAE_FRgJWna-75">
                    <mxGeometry x="350.8771929824561" y="138.09523809523807" width="49.12280701754386" height="20.71428571428571" as="geometry"/>
                </mxCell>
                <mxCell id="2748x5JPsiAE_FRgJWna-69" value="&lt;font style=&quot;font-size: 20px;&quot;&gt;DQ&lt;/font&gt;" style="text;html=1;align=left;verticalAlign=middle;whiteSpace=wrap;rounded=0;sketch=1;curveFitting=1;jiggle=2;fontFamily=Comic Sans MS;movable=0;resizable=0;rotatable=0;deletable=0;editable=0;locked=1;connectable=0;" vertex="1" parent="2748x5JPsiAE_FRgJWna-75">
                    <mxGeometry x="350.8771929824561" y="168.47619047619048" width="49.12280701754386" height="20.71428571428571" as="geometry"/>
                </mxCell>
                <mxCell id="2748x5JPsiAE_FRgJWna-70" style="edgeStyle=none;html=1;entryX=0.998;entryY=0.338;entryDx=0;entryDy=0;entryPerimeter=0;sketch=1;curveFitting=1;jiggle=2;fontFamily=Comic Sans MS;movable=0;resizable=0;rotatable=0;deletable=0;editable=0;locked=1;connectable=0;" edge="1" parent="2748x5JPsiAE_FRgJWna-75" source="2748x5JPsiAE_FRgJWna-67" target="2748x5JPsiAE_FRgJWna-57">
                    <mxGeometry relative="1" as="geometry"/>
                </mxCell>
                <mxCell id="2748x5JPsiAE_FRgJWna-71" style="edgeStyle=none;html=1;sketch=1;curveFitting=1;jiggle=2;fontFamily=Comic Sans MS;entryX=1.001;entryY=0.445;entryDx=0;entryDy=0;entryPerimeter=0;movable=0;resizable=0;rotatable=0;deletable=0;editable=0;locked=1;connectable=0;" edge="1" parent="2748x5JPsiAE_FRgJWna-75" source="2748x5JPsiAE_FRgJWna-68" target="2748x5JPsiAE_FRgJWna-57">
                    <mxGeometry relative="1" as="geometry">
                        <mxPoint x="290" y="150" as="targetPoint"/>
                    </mxGeometry>
                </mxCell>
                <mxCell id="2748x5JPsiAE_FRgJWna-72" style="edgeStyle=none;html=1;sketch=1;curveFitting=1;jiggle=2;startArrow=classic;startFill=1;fontFamily=Comic Sans MS;entryX=0.999;entryY=0.56;entryDx=0;entryDy=0;entryPerimeter=0;movable=0;resizable=0;rotatable=0;deletable=0;editable=0;locked=1;connectable=0;" edge="1" parent="2748x5JPsiAE_FRgJWna-75" source="2748x5JPsiAE_FRgJWna-69" target="2748x5JPsiAE_FRgJWna-57">
                    <mxGeometry relative="1" as="geometry">
                        <mxPoint x="280" y="180" as="targetPoint"/>
                    </mxGeometry>
                </mxCell>
                <mxCell id="2748x5JPsiAE_FRgJWna-73" style="edgeStyle=none;html=1;entryX=0.997;entryY=0.095;entryDx=0;entryDy=0;entryPerimeter=0;sketch=1;curveFitting=1;jiggle=2;movable=0;resizable=0;rotatable=0;deletable=0;editable=0;locked=1;connectable=0;" edge="1" parent="2748x5JPsiAE_FRgJWna-75" source="2748x5JPsiAE_FRgJWna-62" target="2748x5JPsiAE_FRgJWna-57">
                    <mxGeometry relative="1" as="geometry"/>
                </mxCell>
                <mxCell id="2748x5JPsiAE_FRgJWna-74" style="edgeStyle=orthogonalEdgeStyle;html=1;entryX=1.002;entryY=0.063;entryDx=0;entryDy=0;entryPerimeter=0;rounded=0;sketch=1;curveFitting=1;jiggle=2;movable=0;resizable=0;rotatable=0;deletable=0;editable=0;locked=1;connectable=0;" edge="1" parent="2748x5JPsiAE_FRgJWna-75" source="2748x5JPsiAE_FRgJWna-62" target="2748x5JPsiAE_FRgJWna-51">
                    <mxGeometry relative="1" as="geometry">
                        <Array as="points">
                            <mxPoint x="320" y="59"/>
                            <mxPoint x="320" y="16"/>
                        </Array>
                    </mxGeometry>
                </mxCell>
                <mxCell id="2748x5JPsiAE_FRgJWna-76" value="" style="group;movable=0;resizable=0;rotatable=0;deletable=0;editable=0;locked=1;connectable=0;" vertex="1" connectable="0" parent="1">
                    <mxGeometry x="660" y="470" width="400" height="290" as="geometry"/>
                </mxCell>
                <mxCell id="2748x5JPsiAE_FRgJWna-77" value="" style="group;movable=0;resizable=0;rotatable=0;deletable=0;editable=0;locked=1;connectable=0;sketch=1;curveFitting=1;jiggle=2;fontFamily=Comic Sans MS;" vertex="1" connectable="0" parent="2748x5JPsiAE_FRgJWna-76">
                    <mxGeometry width="217.5438596491228" height="255.47619047619045" as="geometry"/>
                </mxCell>
                <mxCell id="2748x5JPsiAE_FRgJWna-78" value="&lt;font style=&quot;font-size: 20px;&quot;&gt;Die&lt;/font&gt;" style="rounded=0;whiteSpace=wrap;html=1;align=left;verticalAlign=bottom;movable=0;resizable=0;rotatable=0;deletable=0;editable=0;locked=1;connectable=0;sketch=1;curveFitting=1;jiggle=2;fontFamily=Comic Sans MS;" vertex="1" parent="2748x5JPsiAE_FRgJWna-77">
                    <mxGeometry width="217.5438596491228" height="255.47619047619045" as="geometry"/>
                </mxCell>
                <mxCell id="2748x5JPsiAE_FRgJWna-79" value="&lt;font style=&quot;font-size: 19px;&quot;&gt;BANK 0&lt;/font&gt;" style="rounded=0;whiteSpace=wrap;html=1;movable=0;resizable=0;rotatable=0;deletable=0;editable=0;locked=1;connectable=0;sketch=1;curveFitting=1;jiggle=2;fontFamily=Comic Sans MS;" vertex="1" parent="2748x5JPsiAE_FRgJWna-77">
                    <mxGeometry x="32.228719948018195" y="17.619047619047617" width="72.51461988304094" height="96.9047619047619" as="geometry"/>
                </mxCell>
                <mxCell id="2748x5JPsiAE_FRgJWna-80" value="&lt;font style=&quot;font-size: 19px;&quot;&gt;BANK 1&lt;/font&gt;" style="rounded=0;whiteSpace=wrap;html=1;movable=0;resizable=0;rotatable=0;deletable=0;editable=0;locked=1;connectable=0;sketch=1;curveFitting=1;jiggle=2;fontFamily=Comic Sans MS;" vertex="1" parent="2748x5JPsiAE_FRgJWna-77">
                    <mxGeometry x="120.85769980506822" y="17.619047619047617" width="72.51461988304094" height="96.9047619047619" as="geometry"/>
                </mxCell>
                <mxCell id="2748x5JPsiAE_FRgJWna-81" value="&lt;font style=&quot;font-size: 19px;&quot;&gt;BANK 2&lt;/font&gt;" style="rounded=0;whiteSpace=wrap;html=1;movable=0;resizable=0;rotatable=0;deletable=0;editable=0;locked=1;connectable=0;sketch=1;curveFitting=1;jiggle=2;fontFamily=Comic Sans MS;" vertex="1" parent="2748x5JPsiAE_FRgJWna-77">
                    <mxGeometry x="32.228719948018195" y="134.78571428571428" width="72.51461988304094" height="96.9047619047619" as="geometry"/>
                </mxCell>
                <mxCell id="2748x5JPsiAE_FRgJWna-82" value="&lt;font style=&quot;font-size: 19px;&quot;&gt;BANK N&lt;/font&gt;" style="rounded=0;whiteSpace=wrap;html=1;movable=0;resizable=0;rotatable=0;deletable=0;editable=0;locked=1;connectable=0;sketch=1;curveFitting=1;jiggle=2;fontFamily=Comic Sans MS;" vertex="1" parent="2748x5JPsiAE_FRgJWna-77">
                    <mxGeometry x="120.85769980506822" y="134.78571428571428" width="72.51461988304094" height="96.9047619047619" as="geometry"/>
                </mxCell>
                <mxCell id="2748x5JPsiAE_FRgJWna-83" value="" style="group;movable=0;resizable=0;rotatable=0;deletable=0;editable=0;locked=1;connectable=0;sketch=1;curveFitting=1;jiggle=2;fontFamily=Comic Sans MS;" vertex="1" connectable="0" parent="2748x5JPsiAE_FRgJWna-76">
                    <mxGeometry x="63.15789473684208" y="34.52380952380952" width="217.5438596491228" height="255.47619047619045" as="geometry"/>
                </mxCell>
                <mxCell id="2748x5JPsiAE_FRgJWna-84" value="&lt;font style=&quot;font-size: 20px;&quot;&gt;Die&lt;/font&gt;" style="rounded=0;whiteSpace=wrap;html=1;align=left;verticalAlign=bottom;movable=0;resizable=0;rotatable=0;deletable=0;editable=0;locked=1;connectable=0;sketch=1;curveFitting=1;jiggle=2;fontFamily=Comic Sans MS;" vertex="1" parent="2748x5JPsiAE_FRgJWna-83">
                    <mxGeometry width="217.5438596491228" height="255.47619047619045" as="geometry"/>
                </mxCell>
                <mxCell id="2748x5JPsiAE_FRgJWna-85" value="&lt;font style=&quot;font-size: 19px;&quot;&gt;BANK 0&lt;/font&gt;" style="rounded=0;whiteSpace=wrap;html=1;movable=0;resizable=0;rotatable=0;deletable=0;editable=0;locked=1;connectable=0;sketch=1;curveFitting=1;jiggle=2;fontFamily=Comic Sans MS;" vertex="1" parent="2748x5JPsiAE_FRgJWna-83">
                    <mxGeometry x="32.228719948018195" y="17.619047619047617" width="72.51461988304094" height="96.9047619047619" as="geometry"/>
                </mxCell>
                <mxCell id="2748x5JPsiAE_FRgJWna-86" value="&lt;font style=&quot;font-size: 19px;&quot;&gt;BANK 1&lt;/font&gt;" style="rounded=0;whiteSpace=wrap;html=1;movable=0;resizable=0;rotatable=0;deletable=0;editable=0;locked=1;connectable=0;sketch=1;curveFitting=1;jiggle=2;fontFamily=Comic Sans MS;" vertex="1" parent="2748x5JPsiAE_FRgJWna-83">
                    <mxGeometry x="120.85769980506822" y="17.619047619047617" width="72.51461988304094" height="96.9047619047619" as="geometry"/>
                </mxCell>
                <mxCell id="2748x5JPsiAE_FRgJWna-87" value="&lt;font style=&quot;font-size: 19px;&quot;&gt;BANK 2&lt;/font&gt;" style="rounded=0;whiteSpace=wrap;html=1;movable=0;resizable=0;rotatable=0;deletable=0;editable=0;locked=1;connectable=0;sketch=1;curveFitting=1;jiggle=2;fontFamily=Comic Sans MS;" vertex="1" parent="2748x5JPsiAE_FRgJWna-83">
                    <mxGeometry x="32.228719948018195" y="134.78571428571428" width="72.51461988304094" height="96.9047619047619" as="geometry"/>
                </mxCell>
                <mxCell id="2748x5JPsiAE_FRgJWna-88" value="&lt;font style=&quot;font-size: 19px;&quot;&gt;BANK N&lt;/font&gt;" style="rounded=0;whiteSpace=wrap;html=1;movable=0;resizable=0;rotatable=0;deletable=0;editable=0;locked=1;connectable=0;sketch=1;curveFitting=1;jiggle=2;fontFamily=Comic Sans MS;" vertex="1" parent="2748x5JPsiAE_FRgJWna-83">
                    <mxGeometry x="120.85769980506822" y="134.78571428571428" width="72.51461988304094" height="96.9047619047619" as="geometry"/>
                </mxCell>
                <mxCell id="2748x5JPsiAE_FRgJWna-89" value="&lt;font style=&quot;font-size: 20px;&quot;&gt;CS_n&lt;/font&gt;" style="text;html=1;align=left;verticalAlign=middle;whiteSpace=wrap;rounded=0;sketch=1;curveFitting=1;jiggle=2;fontFamily=Comic Sans MS;movable=0;resizable=0;rotatable=0;deletable=0;editable=0;locked=1;connectable=0;" vertex="1" parent="2748x5JPsiAE_FRgJWna-76">
                    <mxGeometry x="350.8771929824561" y="48.333333333333314" width="49.12280701754386" height="20.71428571428571" as="geometry"/>
                </mxCell>
                <mxCell id="2748x5JPsiAE_FRgJWna-90" value="&lt;font style=&quot;font-size: 20px;&quot;&gt;CK&lt;/font&gt;" style="text;html=1;align=left;verticalAlign=middle;whiteSpace=wrap;rounded=0;sketch=1;curveFitting=1;jiggle=2;fontFamily=Comic Sans MS;movable=0;resizable=0;rotatable=0;deletable=0;editable=0;locked=1;connectable=0;" vertex="1" parent="2748x5JPsiAE_FRgJWna-76">
                    <mxGeometry x="350.8771929824561" y="82.85714285714283" width="49.12280701754386" height="20.71428571428571" as="geometry"/>
                </mxCell>
                <mxCell id="2748x5JPsiAE_FRgJWna-91" style="edgeStyle=none;html=1;sketch=1;curveFitting=1;jiggle=2;fontFamily=Comic Sans MS;movable=0;resizable=0;rotatable=0;deletable=0;editable=0;locked=1;connectable=0;" edge="1" parent="2748x5JPsiAE_FRgJWna-76" source="2748x5JPsiAE_FRgJWna-90">
                    <mxGeometry relative="1" as="geometry">
                        <mxPoint x="280.70175438596493" y="93.90476190476193" as="targetPoint"/>
                    </mxGeometry>
                </mxCell>
                <mxCell id="2748x5JPsiAE_FRgJWna-92" value="&lt;font style=&quot;font-size: 20px;&quot;&gt;RST_n&lt;/font&gt;" style="text;html=1;align=left;verticalAlign=middle;whiteSpace=wrap;rounded=0;sketch=1;curveFitting=1;jiggle=2;fontFamily=Comic Sans MS;movable=0;resizable=0;rotatable=0;deletable=0;editable=0;locked=1;connectable=0;" vertex="1" parent="2748x5JPsiAE_FRgJWna-76">
                    <mxGeometry x="350.8771929824561" y="110.47619047619048" width="49.12280701754386" height="20.71428571428571" as="geometry"/>
                </mxCell>
                <mxCell id="2748x5JPsiAE_FRgJWna-93" value="&lt;font style=&quot;font-size: 20px;&quot;&gt;CA&lt;/font&gt;" style="text;html=1;align=left;verticalAlign=middle;whiteSpace=wrap;rounded=0;sketch=1;curveFitting=1;jiggle=2;fontFamily=Comic Sans MS;movable=0;resizable=0;rotatable=0;deletable=0;editable=0;locked=1;connectable=0;" vertex="1" parent="2748x5JPsiAE_FRgJWna-76">
                    <mxGeometry x="350.8771929824561" y="138.09523809523807" width="49.12280701754386" height="20.71428571428571" as="geometry"/>
                </mxCell>
                <mxCell id="2748x5JPsiAE_FRgJWna-94" value="&lt;font style=&quot;font-size: 20px;&quot;&gt;DQ&lt;/font&gt;" style="text;html=1;align=left;verticalAlign=middle;whiteSpace=wrap;rounded=0;sketch=1;curveFitting=1;jiggle=2;fontFamily=Comic Sans MS;movable=0;resizable=0;rotatable=0;deletable=0;editable=0;locked=1;connectable=0;" vertex="1" parent="2748x5JPsiAE_FRgJWna-76">
                    <mxGeometry x="350.8771929824561" y="168.47619047619048" width="49.12280701754386" height="20.71428571428571" as="geometry"/>
                </mxCell>
                <mxCell id="2748x5JPsiAE_FRgJWna-95" style="edgeStyle=none;html=1;entryX=0.998;entryY=0.338;entryDx=0;entryDy=0;entryPerimeter=0;sketch=1;curveFitting=1;jiggle=2;fontFamily=Comic Sans MS;movable=0;resizable=0;rotatable=0;deletable=0;editable=0;locked=1;connectable=0;" edge="1" parent="2748x5JPsiAE_FRgJWna-76" source="2748x5JPsiAE_FRgJWna-92" target="2748x5JPsiAE_FRgJWna-84">
                    <mxGeometry relative="1" as="geometry"/>
                </mxCell>
                <mxCell id="2748x5JPsiAE_FRgJWna-96" style="edgeStyle=none;html=1;sketch=1;curveFitting=1;jiggle=2;fontFamily=Comic Sans MS;entryX=1.001;entryY=0.445;entryDx=0;entryDy=0;entryPerimeter=0;movable=0;resizable=0;rotatable=0;deletable=0;editable=0;locked=1;connectable=0;" edge="1" parent="2748x5JPsiAE_FRgJWna-76" source="2748x5JPsiAE_FRgJWna-93" target="2748x5JPsiAE_FRgJWna-84">
                    <mxGeometry relative="1" as="geometry">
                        <mxPoint x="290" y="150" as="targetPoint"/>
                    </mxGeometry>
                </mxCell>
                <mxCell id="2748x5JPsiAE_FRgJWna-97" style="edgeStyle=none;html=1;sketch=1;curveFitting=1;jiggle=2;startArrow=classic;startFill=1;fontFamily=Comic Sans MS;entryX=0.999;entryY=0.56;entryDx=0;entryDy=0;entryPerimeter=0;movable=0;resizable=0;rotatable=0;deletable=0;editable=0;locked=1;connectable=0;" edge="1" parent="2748x5JPsiAE_FRgJWna-76" source="2748x5JPsiAE_FRgJWna-94" target="2748x5JPsiAE_FRgJWna-84">
                    <mxGeometry relative="1" as="geometry">
                        <mxPoint x="280" y="180" as="targetPoint"/>
                    </mxGeometry>
                </mxCell>
                <mxCell id="2748x5JPsiAE_FRgJWna-98" style="edgeStyle=none;html=1;entryX=0.997;entryY=0.095;entryDx=0;entryDy=0;entryPerimeter=0;sketch=1;curveFitting=1;jiggle=2;movable=0;resizable=0;rotatable=0;deletable=0;editable=0;locked=1;connectable=0;" edge="1" parent="2748x5JPsiAE_FRgJWna-76" source="2748x5JPsiAE_FRgJWna-89" target="2748x5JPsiAE_FRgJWna-84">
                    <mxGeometry relative="1" as="geometry"/>
                </mxCell>
                <mxCell id="2748x5JPsiAE_FRgJWna-99" style="edgeStyle=orthogonalEdgeStyle;html=1;entryX=1.002;entryY=0.063;entryDx=0;entryDy=0;entryPerimeter=0;rounded=0;sketch=1;curveFitting=1;jiggle=2;movable=0;resizable=0;rotatable=0;deletable=0;editable=0;locked=1;connectable=0;" edge="1" parent="2748x5JPsiAE_FRgJWna-76" source="2748x5JPsiAE_FRgJWna-89" target="2748x5JPsiAE_FRgJWna-78">
                    <mxGeometry relative="1" as="geometry">
                        <Array as="points">
                            <mxPoint x="320" y="59"/>
                            <mxPoint x="320" y="16"/>
                        </Array>
                    </mxGeometry>
                </mxCell>
            </root>
        </mxGraphModel>
    </diagram>
    <diagram id="8VnGEbQ9G5_T9oslEcQE" name="Hierarchy overview">
        <mxGraphModel dx="1356" dy="1416" grid="1" gridSize="10" guides="1" tooltips="1" connect="1" arrows="1" fold="1" page="1" pageScale="1" pageWidth="1169" pageHeight="827" math="0" shadow="0">
            <root>
                <mxCell id="0"/>
                <mxCell id="1" parent="0"/>
                <mxCell id="TrXWwHq_GtZ-1JWtG3YK-3" value="" style="edgeStyle=none;html=1;flowAnimation=1;strokeWidth=2;" edge="1" parent="1" source="TrXWwHq_GtZ-1JWtG3YK-1" target="TrXWwHq_GtZ-1JWtG3YK-2">
                    <mxGeometry relative="1" as="geometry"/>
                </mxCell>
                <mxCell id="TrXWwHq_GtZ-1JWtG3YK-1" value="&lt;font face=&quot;Comic Sans MS&quot; style=&quot;font-size: 24px;&quot;&gt;&lt;b&gt;Single cell&lt;/b&gt;&lt;/font&gt;" style="text;html=1;align=center;verticalAlign=middle;whiteSpace=wrap;rounded=0;" vertex="1" parent="1">
                    <mxGeometry x="110" y="260" width="130" height="30" as="geometry"/>
                </mxCell>
                <mxCell id="TrXWwHq_GtZ-1JWtG3YK-5" value="" style="edgeStyle=none;html=1;strokeWidth=2;flowAnimation=1;endArrow=classic;endFill=1;" edge="1" parent="1" source="TrXWwHq_GtZ-1JWtG3YK-2" target="TrXWwHq_GtZ-1JWtG3YK-4">
                    <mxGeometry relative="1" as="geometry"/>
                </mxCell>
                <mxCell id="TrXWwHq_GtZ-1JWtG3YK-2" value="&lt;font face=&quot;Comic Sans MS&quot; style=&quot;font-size: 24px;&quot;&gt;&lt;b&gt;Bank&lt;/b&gt;&lt;/font&gt;" style="text;html=1;align=center;verticalAlign=middle;whiteSpace=wrap;rounded=0;" vertex="1" parent="1">
                    <mxGeometry x="320" y="260" width="130" height="30" as="geometry"/>
                </mxCell>
                <mxCell id="TrXWwHq_GtZ-1JWtG3YK-7" value="" style="edgeStyle=none;html=1;strokeWidth=2;flowAnimation=1;endArrow=classic;endFill=1;flowAnimationDirection=normal;flowAnimationTimingFunction=linear;flowAnimationDuration=500;" edge="1" parent="1" source="TrXWwHq_GtZ-1JWtG3YK-4" target="TrXWwHq_GtZ-1JWtG3YK-6">
                    <mxGeometry relative="1" as="geometry"/>
                </mxCell>
                <mxCell id="TrXWwHq_GtZ-1JWtG3YK-4" value="&lt;font face=&quot;Comic Sans MS&quot; style=&quot;font-size: 24px;&quot;&gt;&lt;b&gt;Channel&lt;/b&gt;&lt;/font&gt;" style="text;html=1;align=center;verticalAlign=middle;whiteSpace=wrap;rounded=0;" vertex="1" parent="1">
                    <mxGeometry x="530" y="260" width="130" height="30" as="geometry"/>
                </mxCell>
                <mxCell id="TrXWwHq_GtZ-1JWtG3YK-6" value="&lt;font face=&quot;Comic Sans MS&quot; style=&quot;font-size: 24px;&quot;&gt;&lt;b&gt;Package&lt;/b&gt;&lt;/font&gt;" style="text;html=1;align=center;verticalAlign=middle;whiteSpace=wrap;rounded=0;" vertex="1" parent="1">
                    <mxGeometry x="740" y="260" width="130" height="30" as="geometry"/>
                </mxCell>
            </root>
        </mxGraphModel>
    </diagram>
</mxfile>